<?xml version="1.0" encoding="utf-8"?>
<!-- Generator: Adobe Illustrator 23.0.3, SVG Export Plug-In . SVG Version: 6.00 Build 0)  -->
<svg version="1.1" xmlns="http://www.w3.org/2000/svg" xmlns:xlink="http://www.w3.org/1999/xlink" x="0px" y="0px"
	 viewBox="0 0 1207.2 1009.2" style="enable-background:new 0 0 1207.2 1009.2;" xml:space="preserve">
<style type="text/css">
	.tic0{fill:#F9F9F9;}
	.tic1{fill:#F0F0F8;}
	.tic2{fill:url(#XMLID_65_);}
	.tic3{opacity:0.5;fill:url(#XMLID_66_);}
	.tic4{fill:url(#XMLID_67_);}
	.tic5{opacity:0.5;fill:url(#XMLID_68_);}
	.tic6{opacity:0.5;fill:url(#XMLID_69_);}
	.tic7{opacity:0.5;}
	.tic8{fill:url(#XMLID_70_);}
	.tic9{fill:url(#XMLID_71_);}
	.tic10{fill:url(#XMLID_72_);}
	.tic11{fill:url(#XMLID_73_);}
	.tic12{fill:url(#XMLID_74_);}
	.tic13{fill:url(#XMLID_75_);}
	.tic14{fill:url(#XMLID_76_);}
	.tic15{fill:url(#XMLID_77_);}
	.tic16{fill:url(#XMLID_78_);}
	.tic17{fill:url(#XMLID_79_);}
	.tic18{fill:url(#XMLID_80_);}
	.tic19{fill:url(#XMLID_81_);}
	.tic20{fill:url(#XMLID_82_);}
	.tic21{fill:url(#XMLID_83_);}
	.tic22{fill:#FFFFFF;}
	.tic23{fill:url(#XMLID_84_);}
	.tic24{fill:url(#XMLID_85_);}
	.tic25{fill:url(#XMLID_86_);}
	.tic26{fill:url(#XMLID_87_);}
	.tic27{fill:url(#XMLID_88_);}
	.tic28{fill:url(#XMLID_89_);}
	.tic29{fill:url(#XMLID_90_);}
	.tic30{fill:url(#XMLID_91_);}
	.tic31{fill:url(#XMLID_92_);}
	.tic32{fill:url(#XMLID_93_);}
	.tic33{fill:url(#XMLID_94_);}
	.tic34{fill:url(#XMLID_95_);}
	.tic35{fill:url(#XMLID_96_);}
	.tic36{fill:url(#XMLID_97_);}
	.tic37{fill:url(#XMLID_98_);}
	.tic38{fill:none;stroke:url(#XMLID_99_);stroke-miterlimit:10;}
	.tic39{fill:url(#XMLID_100_);}
	.tic40{fill:url(#XMLID_101_);}
	.tic41{fill:url(#XMLID_102_);}
	.tic42{fill:url(#XMLID_103_);}
	.tic43{fill:url(#XMLID_104_);}
	.tic44{fill:url(#XMLID_105_);}
	.tic45{fill:url(#XMLID_106_);}
	.tic46{fill:url(#XMLID_107_);}
	.tic47{fill:url(#XMLID_108_);}
	.tic48{fill:url(#XMLID_109_);}
	.tic49{fill:url(#XMLID_110_);}
	.tic50{fill:url(#XMLID_111_);}
	.tic51{fill:url(#XMLID_112_);}
	.tic52{fill:url(#XMLID_113_);}
	.tic53{fill:url(#XMLID_114_);}
	.tic54{fill:url(#XMLID_115_);}
	.tic55{fill:url(#XMLID_116_);}
	.tic56{fill:url(#XMLID_117_);}
	.tic57{fill:url(#XMLID_118_);}
	.tic58{fill:url(#XMLID_119_);}
	.tic59{fill:url(#XMLID_120_);}
	.tic60{fill:url(#XMLID_121_);}
	.tic61{fill:url(#XMLID_122_);}
	.tic62{fill:url(#XMLID_123_);}
	.tic63{fill:url(#XMLID_124_);}
	.tic64{fill:url(#XMLID_125_);}
	.tic65{fill:url(#XMLID_126_);}
</style>
<g id="Layer_3">
</g>
<g id="Layer_2">
	<g>
		<circle class="tic0" cx="249" cy="396.8" r="249"/>
		<circle class="tic0" cx="424.5" cy="760.3" r="249"/>
		<circle class="tic1" cx="762.7" cy="444.5" r="444.5"/>
		<linearGradient id="XMLID_65_" gradientUnits="userSpaceOnUse" x1="562.9604" y1="664.4586" x2="585.7512" y2="203.8439">
			<stop  offset="0" style="stop-color:#3AD2FF"/>
			<stop  offset="0.1497" style="stop-color:#3BCDFF"/>
			<stop  offset="0.3351" style="stop-color:#3FBDFF"/>
			<stop  offset="0.5396" style="stop-color:#46A4FF"/>
			<stop  offset="0.7575" style="stop-color:#4F81FF"/>
			<stop  offset="0.9842" style="stop-color:#5A54FF"/>
			<stop  offset="1" style="stop-color:#5B51FF"/>
		</linearGradient>
		<path id="XMLID_803_" class="tic2" d="M36.7,644.4c-13.4-97.3-1.9-305.3,212.1-290.8s322.9-56,413.2-136.3s307.7-65.9,365.6,60.7
			c57.9,126.5,76.7,259.5,70.6,366.4C1092.2,751.3,50.1,741.6,36.7,644.4z"/>
		<linearGradient id="XMLID_66_" gradientUnits="userSpaceOnUse" x1="571.1207" y1="518.4819" x2="587.0621" y2="196.2961">
			<stop  offset="0" style="stop-color:#FFFFFF"/>
			<stop  offset="1" style="stop-color:#231F20;stop-opacity:0"/>
		</linearGradient>
		<path id="XMLID_874_" class="tic3" d="M1098.7,575.5c-3.8-92.4-25.1-197-71.1-297.6c-14.7-32-39.5-56.9-70-74.8
			c-67.3-27-145.8-35.2-217.8-25.6c-30.2,8.3-57.3,21.6-77.7,39.8c-90.3,80.2-199.2,150.8-413.2,136.3
			c-134.5-9.1-189,69.6-207.6,153.6c132,11,271.6-1.2,412.5-40.6C676.5,404.3,824.9,622.6,1098.7,575.5z"/>
		<linearGradient id="XMLID_67_" gradientUnits="userSpaceOnUse" x1="567.4095" y1="653.9352" x2="564.0383" y2="943.8654">
			<stop  offset="0" style="stop-color:#F8BFD6"/>
			<stop  offset="0.1807" style="stop-color:#F3BCD7"/>
			<stop  offset="0.4045" style="stop-color:#E3B4DA"/>
			<stop  offset="0.6511" style="stop-color:#CAA7DF"/>
			<stop  offset="0.9124" style="stop-color:#A794E6"/>
			<stop  offset="1" style="stop-color:#9A8DE9"/>
		</linearGradient>
		<path id="XMLID_760_" class="tic4" d="M36.7,644.4h1061.6c0,0,4.6,200.7-187.3,267.7s-379.3-62.4-543.5-62.4S55.2,816,36.7,644.4z"
			/>
		<linearGradient id="XMLID_68_" gradientUnits="userSpaceOnUse" x1="613.4319" y1="387.4073" x2="694.1908" y2="-33.6923">
			<stop  offset="0" style="stop-color:#FFFFFF"/>
			<stop  offset="1" style="stop-color:#231F20;stop-opacity:0"/>
		</linearGradient>
		<path id="XMLID_866_" class="tic5" d="M578.9,369.6c168-47,274.7,137.5,500.2,60.9c-11.6-50.5-28.4-102-51.5-152.6
			c-57.9-126.5-275.3-140.9-365.6-60.7c-90.3,80.2-199.2,150.8-413.2,136.3c-43-2.9-77.8,3.2-105.9,15.5
			C274.7,408.5,425.7,412.4,578.9,369.6z"/>
		<linearGradient id="XMLID_69_" gradientUnits="userSpaceOnUse" x1="846.9365" y1="263.1813" x2="876.1125" y2="111.049">
			<stop  offset="0" style="stop-color:#FFFFFF"/>
			<stop  offset="1" style="stop-color:#231F20;stop-opacity:0"/>
		</linearGradient>
		<path id="XMLID_875_" class="tic6" d="M1037.7,301.1c-3.2-7.7-6.6-15.5-10.1-23.2c-57.9-126.5-275.3-140.9-365.6-60.7
			c-1.8,1.6-3.5,3.1-5.3,4.7C775.1,233.8,874.2,336.3,1037.7,301.1z"/>
		<g id="XMLID_887_" class="tic7">
			<linearGradient id="XMLID_70_" gradientUnits="userSpaceOnUse" x1="717.6663" y1="724.3391" x2="371.8679" y2="865.5078">
				<stop  offset="0" style="stop-color:#FFFFFF"/>
				<stop  offset="1" style="stop-color:#231F20;stop-opacity:0"/>
			</linearGradient>
			<path id="XMLID_890_" class="tic8" d="M318.8,766.8c-95.7,0-186.9-9.2-259.3-40.9c50.9,101.4,174,123.8,308,123.8
				c164.2,0,351.5,129.5,543.5,62.4c55.4-19.3,94.3-49.8,121.8-83.4c-12,5.7-24.7,11-38.2,15.7C755.9,927.8,522.9,766.8,318.8,766.8
				z"/>
		</g>
		<linearGradient id="XMLID_71_" gradientUnits="userSpaceOnUse" x1="752.4354" y1="714.8278" x2="586.8837" y2="619.0369">
			<stop  offset="0" style="stop-color:#FFFFFF;stop-opacity:0"/>
			<stop  offset="1" style="stop-color:#858585"/>
		</linearGradient>
		<polygon id="XMLID_63_" class="tic9" points="593.4,709 792,729 801.8,657.1 717.4,654.7 		"/>
		<linearGradient id="XMLID_72_" gradientUnits="userSpaceOnUse" x1="982.3054" y1="712.4571" x2="751.4166" y2="578.8611">
			<stop  offset="0" style="stop-color:#FFFFFF;stop-opacity:0"/>
			<stop  offset="1" style="stop-color:#858585"/>
		</linearGradient>
		<polygon id="XMLID_62_" class="tic10" points="738.9,657.3 1025.8,668 1012.7,644.4 876.8,644.5 		"/>
		<linearGradient id="XMLID_73_" gradientUnits="userSpaceOnUse" x1="97.2065" y1="701.8357" x2="428.8899" y2="707.9105">
			<stop  offset="0" style="stop-color:#858585"/>
			<stop  offset="9.648323e-02" style="stop-color:#939393;stop-opacity:0.9035"/>
			<stop  offset="0.5201" style="stop-color:#CDCDCD;stop-opacity:0.4799"/>
			<stop  offset="0.8335" style="stop-color:#F1F1F1;stop-opacity:0.1665"/>
			<stop  offset="1" style="stop-color:#FFFFFF;stop-opacity:0"/>
		</linearGradient>
		<polygon id="XMLID_61_" class="tic11" points="159.1,708.5 424.5,725.5 416,690 169.4,685.9 		"/>
		<linearGradient id="XMLID_74_" gradientUnits="userSpaceOnUse" x1="912.1064" y1="742.298" x2="901.3833" y2="691.8499">
			<stop  offset="0" style="stop-color:#FFFFFF;stop-opacity:0"/>
			<stop  offset="5.396748e-02" style="stop-color:#F6F6F6;stop-opacity:5.396748e-02"/>
			<stop  offset="0.3627" style="stop-color:#C5C5C5;stop-opacity:0.3627"/>
			<stop  offset="0.6344" style="stop-color:#A2A2A2;stop-opacity:0.6344"/>
			<stop  offset="0.856" style="stop-color:#8C8C8C;stop-opacity:0.856"/>
			<stop  offset="1" style="stop-color:#858585"/>
		</linearGradient>
		<polygon id="XMLID_60_" class="tic12" points="730.7,728.3 1063.4,745.3 1081,697.6 741.1,705.7 		"/>
		<linearGradient id="XMLID_75_" gradientUnits="userSpaceOnUse" x1="111.0137" y1="511.2905" x2="169.4485" y2="511.2905">
			<stop  offset="0" style="stop-color:#30DAE2"/>
			<stop  offset="1" style="stop-color:#63F2F7"/>
		</linearGradient>
		<path id="XMLID_59_" class="tic13" d="M154.9,541.9c0,0-24-7.1-37.2-20.9c-13.2-13.7-5.1-37.4,7.1-42.3s34.2,19.7,38.7,34
			c4.5,14.3,5.8,31.8,5.8,31.8L154.9,541.9z"/>
		<linearGradient id="XMLID_76_" gradientUnits="userSpaceOnUse" x1="111.8327" y1="340.4877" x2="176.2443" y2="406.8966">
			<stop  offset="0" style="stop-color:#63F2F7"/>
			<stop  offset="1" style="stop-color:#30DAE2"/>
		</linearGradient>
		<path id="XMLID_58_" class="tic14" d="M136.2,419.3c0,0-9.6-37.1-11.3-59.3s9.2-52.4,23.2-52.9c13.9-0.5,29.5,33.5,30.5,60.5
			c0.9,26.9-22.2,95-22.2,95L136.2,419.3z"/>
		<linearGradient id="XMLID_77_" gradientUnits="userSpaceOnUse" x1="662.5016" y1="298.5377" x2="725.7035" y2="298.5377">
			<stop  offset="0" style="stop-color:#4A458B"/>
			<stop  offset="0.276" style="stop-color:#443E83"/>
			<stop  offset="0.6922" style="stop-color:#342C6F"/>
			<stop  offset="1" style="stop-color:#241A5B"/>
		</linearGradient>
		<polygon id="XMLID_57_" class="tic15" points="687.6,347.3 725.7,296.5 698.3,249.8 662.5,302.5 		"/>
		<linearGradient id="XMLID_78_" gradientUnits="userSpaceOnUse" x1="683.158" y1="283.9158" x2="720.246" y2="319.1755">
			<stop  offset="0" style="stop-color:#241A5B"/>
			<stop  offset="0.3078" style="stop-color:#342C6F"/>
			<stop  offset="0.724" style="stop-color:#443E83"/>
			<stop  offset="1" style="stop-color:#4A458B"/>
		</linearGradient>
		<polygon id="XMLID_56_" class="tic16" points="671.2,300.2 693.3,339.7 725.7,296.5 701.6,255.4 		"/>
		<linearGradient id="XMLID_79_" gradientUnits="userSpaceOnUse" x1="773.4302" y1="443.9325" x2="839.9749" y2="611.2448">
			<stop  offset="0" style="stop-color:#F8BFD6"/>
			<stop  offset="1" style="stop-color:#9A8DE9"/>
		</linearGradient>
		<path id="XMLID_55_" class="tic17" d="M819.7,351.4l-51.7,7.8c-4.5,33.1-16.9,138.9-9.3,256.6l88.6-8.1
			C823.8,497.4,820.2,393.6,819.7,351.4z"/>
		<linearGradient id="XMLID_80_" gradientUnits="userSpaceOnUse" x1="603.6451" y1="496.9497" x2="781.6699" y2="496.9497">
			<stop  offset="0" style="stop-color:#947FFF"/>
			<stop  offset="0.632" style="stop-color:#5A42D9"/>
			<stop  offset="0.8871" style="stop-color:#4228C9"/>
		</linearGradient>
		<path id="XMLID_54_" class="tic18" d="M719.5,398.2c-0.8,12.6-5.1,58.9-29.1,106.6c0,0,0-45.6,2-92.9l-43.7-9.1
			c-6.6,23.1-16.8,59.4-21.7,80.8c-6.1,26-18,80.5-22.8,102.5c-1.3,6,0.4,12.2,4.6,16.7l25.6,27.6h94.2l11-266.8
			c-5.7,0.8-10.2,13.5-18.2,28.4C720.2,393.8,719.6,396,719.5,398.2z"/>
		<linearGradient id="XMLID_81_" gradientUnits="userSpaceOnUse" x1="725.3235" y1="546.4475" x2="670.9144" y2="525.5618">
			<stop  offset="0" style="stop-color:#FFFFFF;stop-opacity:0"/>
			<stop  offset="1" style="stop-color:#858585"/>
		</linearGradient>
		<path id="XMLID_53_" class="tic19" d="M731.3,562.1l-33.5-73.4c-2.2,5.3-4.7,10.7-7.4,16.1c0.4,31,3.6,46.9,6.5,60.6
			c2.9,13.7,0,17.3,0,17.3L731.3,562.1z"/>
		<linearGradient id="XMLID_82_" gradientUnits="userSpaceOnUse" x1="939.0757" y1="716.731" x2="989.4944" y2="668.2766">
			<stop  offset="0.1129" style="stop-color:#AB3ACA"/>
			<stop  offset="0.3629" style="stop-color:#B43BBF"/>
			<stop  offset="0.8066" style="stop-color:#CA3EA0"/>
			<stop  offset="1" style="stop-color:#D63F91"/>
		</linearGradient>
		<path id="XMLID_52_" class="tic20" d="M896.1,721c3.7,1.4,11.4,0.1,16.7-3s15.7-8.5,34.5-9c30.1-0.7,56.5,21.1,116.1-5.6L991.8,672
			l-128.3,11.3L896.1,721z"/>
		<linearGradient id="XMLID_83_" gradientUnits="userSpaceOnUse" x1="962.455" y1="719.9132" x2="962.455" y2="689.3231">
			<stop  offset="0" style="stop-color:#FFFFFF;stop-opacity:0"/>
			<stop  offset="1" style="stop-color:#858585"/>
		</linearGradient>
		<path id="XMLID_51_" class="tic21" d="M867.7,682.9l28.3,32.7c3.7,1.4,11.4,0.1,16.7-3s15.7-8.5,34.5-9c29-0.7,54.7,19.6,109.9-2.9
			L991.8,672L867.7,682.9z"/>
		<path id="XMLID_50_" class="tic22" d="M582.7,683.2l-211.5-16.4l192-15.2c2.5-0.2,5-0.3,7.5-0.3h151.5L582.7,683.2z"/>
		<linearGradient id="XMLID_84_" gradientUnits="userSpaceOnUse" x1="654.2795" y1="672.3828" x2="662.7969" y2="691.04">
			<stop  offset="0" style="stop-color:#EDF5FF"/>
			<stop  offset="0.4839" style="stop-color:#F8FBFF"/>
			<stop  offset="1" style="stop-color:#FFFFFF"/>
		</linearGradient>
		<polygon id="XMLID_49_" class="tic23" points="582.7,683.2 722.3,651.3 726.6,660.7 593.4,709 		"/>
		<linearGradient id="XMLID_85_" gradientUnits="userSpaceOnUse" x1="587.9149" y1="651.5784" x2="692.7204" y2="667.2993">
			<stop  offset="0" style="stop-color:#858585"/>
			<stop  offset="1" style="stop-color:#FFFFFF;stop-opacity:0"/>
		</linearGradient>
		<polygon id="XMLID_48_" class="tic24" points="613.1,671.8 640.7,670 645.9,690 726.6,660.7 709.3,640.1 621.4,660.7 		"/>
		<linearGradient id="XMLID_86_" gradientUnits="userSpaceOnUse" x1="197.4631" y1="509.0016" x2="230.5363" y2="529.2627">
			<stop  offset="0" style="stop-color:#63F2F7"/>
			<stop  offset="0.1195" style="stop-color:#58EDF3"/>
			<stop  offset="0.4335" style="stop-color:#42E3E9"/>
			<stop  offset="0.733" style="stop-color:#35DCE4"/>
			<stop  offset="1" style="stop-color:#30DAE2"/>
		</linearGradient>
		<path id="XMLID_47_" class="tic25" d="M216.1,538.5c7.4-3.8,15-8.2,18-11.7c6.7-7.8,8.9-27.2-4.2-34.4c-13-7.2-25.8-0.6-36.3,19.4
			l-8.8,25.9C192,537.8,203.2,537.9,216.1,538.5z"/>
		<linearGradient id="XMLID_87_" gradientUnits="userSpaceOnUse" x1="841.5748" y1="473.9494" x2="930.4186" y2="480.9634">
			<stop  offset="0" style="stop-color:#947FFF"/>
			<stop  offset="0.3885" style="stop-color:#6952E3"/>
			<stop  offset="0.7078" style="stop-color:#4D33D0"/>
			<stop  offset="0.8871" style="stop-color:#4228C9"/>
		</linearGradient>
		<path id="XMLID_46_" class="tic26" d="M927.8,600.3l-53.6-257.1l-54.5,8.2c0.4,42.2,4.1,145.9,27.6,256.3L927.8,600.3z"/>
		<linearGradient id="XMLID_88_" gradientUnits="userSpaceOnUse" x1="704.7835" y1="489.3968" x2="762.6414" y2="489.3968">
			<stop  offset="0" style="stop-color:#947FFF"/>
			<stop  offset="0.3885" style="stop-color:#6952E3"/>
			<stop  offset="0.7078" style="stop-color:#4D33D0"/>
			<stop  offset="0.8871" style="stop-color:#4228C9"/>
		</linearGradient>
		<path id="XMLID_45_" class="tic27" d="M768,359.2l-28.5,4.3c0,0-27,152.2-21.2,256l40.5-3.7C751.1,498.1,763.5,392.4,768,359.2z"/>
		<linearGradient id="XMLID_89_" gradientUnits="userSpaceOnUse" x1="819.7421" y1="444.4887" x2="854.9622" y2="444.4887">
			<stop  offset="0" style="stop-color:#FFFFFF"/>
			<stop  offset="1" style="stop-color:#DBDBE0"/>
		</linearGradient>
		<path id="XMLID_44_" class="tic28" d="M855,391.2l-35.2-39.8c0.3,33.1,2.7,103.9,14.9,186.1C842.1,467.1,855,391.2,855,391.2z"/>
		<g id="XMLID_42_">
			<linearGradient id="XMLID_90_" gradientUnits="userSpaceOnUse" x1="738.908" y1="447.7908" x2="767.9935" y2="447.7908">
				<stop  offset="0" style="stop-color:#FFFFFF"/>
				<stop  offset="1" style="stop-color:#DBDBE0"/>
			</linearGradient>
			<path id="XMLID_43_" class="tic29" d="M738.9,405.2l17.4,131.2c0.1-83.5,8.2-151.7,11.7-177.1L738.9,405.2z"/>
		</g>
		<linearGradient id="XMLID_91_" gradientUnits="userSpaceOnUse" x1="762.8028" y1="377.9565" x2="821.2082" y2="377.9565">
			<stop  offset="0" style="stop-color:#FFFFFF"/>
			<stop  offset="1" style="stop-color:#DBDBE0"/>
		</linearGradient>
		<path id="XMLID_41_" class="tic30" d="M793.1,370.4l28.1,29.4c-1-20.1-1.3-36.6-1.5-48.3l-51.7,7.8c-1.3,9.5-3.3,25.1-5.2,45.2
			L793.1,370.4z"/>
		<linearGradient id="XMLID_92_" gradientUnits="userSpaceOnUse" x1="773.6705" y1="351.7169" x2="811.241" y2="351.7169">
			<stop  offset="0" style="stop-color:#F7E8D4"/>
			<stop  offset="0.3392" style="stop-color:#F8DDC9"/>
			<stop  offset="0.9343" style="stop-color:#FAC0AC"/>
			<stop  offset="1" style="stop-color:#FABCA8"/>
		</linearGradient>
		<path id="XMLID_40_" class="tic31" d="M773.7,347.2c1.6,19.6,13,22.7,18.3,22.4s13.5-2.7,17.4-7.7c4-5,0.4-20.1-1.2-28L773.7,347.2
			z"/>
		<linearGradient id="XMLID_93_" gradientUnits="userSpaceOnUse" x1="637.2671" y1="357.2704" x2="699.2722" y2="318.2734">
			<stop  offset="0" style="stop-color:#F7E8D4"/>
			<stop  offset="0.3392" style="stop-color:#F8DDC9"/>
			<stop  offset="0.9343" style="stop-color:#FAC0AC"/>
			<stop  offset="1" style="stop-color:#FABCA8"/>
		</linearGradient>
		<path id="XMLID_39_" class="tic32" d="M677.2,271.7c7.6,0,10,12.6,4.8,19.3c-4.1,5.3-10.4,13.3-12.7,16.3c-0.6,0.7-0.6,1.7-0.2,2.5
			l17.7,32.2c0.8,1.4,2.8,1.6,3.8,0.4c4.7-5.8,15.7-19.2,18.7-22.3c3.9-4,10.8,4,6.2,14.9c-4.6,10.9-16.4,31.4-18.3,33.7
			c-1.9,2.3-3.1,9.5-3.4,15.3l-36.1-2.2l1.7-10.8c0.8-5.3,0.2-10.8-1.9-15.8l-12.3-29c-1.3-3.1-1.9-6.4-1.7-9.8l0.6-11.2
			c0.4-7.6,4.1-14.7,10-19.5C662,279.5,672.8,271.7,677.2,271.7z"/>
		<linearGradient id="XMLID_94_" gradientUnits="userSpaceOnUse" x1="648.6526" y1="396.7645" x2="693.7213" y2="396.7645">
			<stop  offset="0" style="stop-color:#FFFFFF"/>
			<stop  offset="0.3226" style="stop-color:#FAFAFB"/>
			<stop  offset="0.6881" style="stop-color:#EDEDEF"/>
			<stop  offset="1" style="stop-color:#DBDBE0"/>
		</linearGradient>
		<path id="XMLID_38_" class="tic33" d="M693.7,384l-38.9-2.4c0,0-2.5,8.6-6.1,21.3l43.7,9.1C692.7,402.6,693.2,393.1,693.7,384z"/>
		<linearGradient id="XMLID_95_" gradientUnits="userSpaceOnUse" x1="726.5234" y1="615.5567" x2="736.6168" y2="660.022">
			<stop  offset="0" style="stop-color:#FFFFFF"/>
			<stop  offset="0.3226" style="stop-color:#FAFAFB"/>
			<stop  offset="0.6881" style="stop-color:#EDEDEF"/>
			<stop  offset="1" style="stop-color:#DBDBE0"/>
		</linearGradient>
		<path id="XMLID_37_" class="tic34" d="M709.3,615.5l11.1,46.6c0,0,12.4-0.5,33.6-1.4L738.9,613C729.5,614,719.6,614.9,709.3,615.5z
			"/>
		<linearGradient id="XMLID_96_" gradientUnits="userSpaceOnUse" x1="845.3348" y1="517.1644" x2="994.494" y2="589.9142">
			<stop  offset="0" style="stop-color:#947FFF"/>
			<stop  offset="0.5215" style="stop-color:#6B53E4"/>
			<stop  offset="1" style="stop-color:#4228C9"/>
		</linearGradient>
		<path id="XMLID_36_" class="tic35" d="M981.3,589.7c-13.7-27.1-51.7-107.7-85.6-228.4c-0.4-1.5-1.3-2.8-2.6-3.8l-19-14.3
			c0,0,2.5,143.8,20.2,227.3c0,0-47.9,30.8-155.6,42.5l15.1,47.7c42.1-1.8,118.8-5.4,202.6-10.3c4.4-0.3,8.3-2.9,10.1-7l14.9-32.9
			C984.8,603.9,984.6,596.2,981.3,589.7z"/>
		<linearGradient id="XMLID_97_" gradientUnits="userSpaceOnUse" x1="649.424" y1="609.698" x2="651.3534" y2="658.577">
			<stop  offset="0" style="stop-color:#F7E8D4"/>
			<stop  offset="0.3392" style="stop-color:#F8DDC9"/>
			<stop  offset="0.9343" style="stop-color:#FAC0AC"/>
			<stop  offset="1" style="stop-color:#FABCA8"/>
		</linearGradient>
		<path id="XMLID_35_" class="tic36" d="M709.3,615.5c-12.4,0.6-42.8-8.9-59.2-14.3c-7.1-2.4-14.8-1.4-21.1,2.5l-16.7,10.4
			c-10.5,6.5-18.7,16.1-23.4,27.5l-5.3,12.8c-2.3,5.4,0.8,11.6,6.4,13.2l11.6,3.2c7.8,2.2,16.2,1.3,23.4-2.5l11.4-6
			c9.4-4.9,20.1-6.7,30.5-5.1l28.2,4.4c1.8,0.3,3.5,0.4,5.3,0.2l19.7-1.3L709.3,615.5z"/>
		<linearGradient id="XMLID_98_" gradientUnits="userSpaceOnUse" x1="95.69" y1="623.4047" x2="258.4392" y2="623.4047">
			<stop  offset="0" style="stop-color:#EDF5FF"/>
			<stop  offset="0.4839" style="stop-color:#F8FBFF"/>
			<stop  offset="1" style="stop-color:#FFFFFF"/>
		</linearGradient>
		<path id="XMLID_34_" class="tic37" d="M177.1,537.8c0,0-42.4-0.8-78.4,4c-1.9,0.3-3.2,2-2.9,3.9l20,147.6c0.6,4.7,4,8.5,8.5,9.8
			c9,2.5,26.4,6,52.9,6s43.8-3.5,52.9-6c4.5-1.3,7.8-5.1,8.5-9.8l20-147.6c0.3-1.9-1-3.6-2.9-3.9C219.5,537,177.1,537.8,177.1,537.8
			z"/>
		<g id="XMLID_32_">
			<linearGradient id="XMLID_99_" gradientUnits="userSpaceOnUse" x1="95.19" y1="559.4978" x2="258.9392" y2="559.4978">
				<stop  offset="0" style="stop-color:#FFFFFF"/>
				<stop  offset="1" style="stop-color:#DBDBE0"/>
			</linearGradient>
			<path id="XMLID_33_" class="tic38" d="M195.7,577.8l57.9,3.4l4.8-35.5c0.3-1.9-1-3.6-2.9-3.9c-36-4.8-78.4-4-78.4-4
				s-42.4-0.8-78.4,4c-1.9,0.3-3.2,2-2.9,3.9l4.8,35.5l57.9-3.4C170.8,577,183.3,577,195.7,577.8z"/>
		</g>
		<linearGradient id="XMLID_100_" gradientUnits="userSpaceOnUse" x1="100.5352" y1="585.9825" x2="253.5939" y2="585.9825">
			<stop  offset="0" style="stop-color:#F878FF"/>
			<stop  offset="0.2294" style="stop-color:#DE6CFF"/>
			<stop  offset="0.5341" style="stop-color:#C25FFF"/>
			<stop  offset="0.8013" style="stop-color:#B157FF"/>
			<stop  offset="1" style="stop-color:#AB54FF"/>
		</linearGradient>
		<path id="XMLID_31_" class="tic39" d="M195.7,577.8c-12.4-0.7-24.9-0.7-37.3,0l-57.9,3.4l1.8,13.5l56.1-3.3
			c12.4-0.7,24.9-0.7,37.3,0l56.1,3.3l1.8-13.5L195.7,577.8z"/>
		<g id="XMLID_29_">
			<linearGradient id="XMLID_101_" gradientUnits="userSpaceOnUse" x1="151.158" y1="413.3204" x2="226.3734" y2="449.8687">
				<stop  offset="0" style="stop-color:#63F2F7"/>
				<stop  offset="1" style="stop-color:#30DAE2"/>
			</linearGradient>
			<path id="XMLID_30_" class="tic40" d="M187.7,537.8c6.9-14.3,28-58.4,42.7-92.1c17.9-40.9,24.7-80.7,12-94.8
				c-12.7-14.1-50.5-25.1-71.4,17.2c-9.7,19.6-14.1,47.2-16,71.1c9,30.3,22.8,83,26.9,98.7C183.5,537.8,185.4,537.8,187.7,537.8z"/>
		</g>
		<linearGradient id="XMLID_102_" gradientUnits="userSpaceOnUse" x1="323.7732" y1="506.488" x2="575.5655" y2="618.5931">
			<stop  offset="0" style="stop-color:#FF9F96"/>
			<stop  offset="0.1851" style="stop-color:#FF9A96"/>
			<stop  offset="0.4153" style="stop-color:#FF8A96"/>
			<stop  offset="0.6693" style="stop-color:#FF7195"/>
			<stop  offset="0.9388" style="stop-color:#FF4E95"/>
			<stop  offset="1" style="stop-color:#FF4595"/>
		</linearGradient>
		<path id="XMLID_28_" class="tic41" d="M283,483.5l58.5,195.3L593.4,709l-38.4-256.7c-1.2-7.9-8.6-13.4-16.5-12.2L287,477.3
			C284,477.7,282.2,480.6,283,483.5z"/>
		<linearGradient id="XMLID_103_" gradientUnits="userSpaceOnUse" x1="397.5706" y1="574.3578" x2="434.5301" y2="594.0095">
			<stop  offset="0" style="stop-color:#FFFFFF"/>
			<stop  offset="0.3226" style="stop-color:#FAFAFB"/>
			<stop  offset="0.6881" style="stop-color:#EDEDEF"/>
			<stop  offset="1" style="stop-color:#DBDBE0"/>
		</linearGradient>
		<path id="XMLID_27_" class="tic42" d="M412.9,563.8c-10.8,0.4-18.1,9.7-16.2,20.9c1.9,11.1,12,20.2,22.4,20.2s17.7-9.4,16.2-20.9
			C433.8,572.6,423.8,563.5,412.9,563.8z"/>
		<linearGradient id="XMLID_104_" gradientUnits="userSpaceOnUse" x1="811.9525" y1="643.3673" x2="624.632" y2="657.9366">
			<stop  offset="0" style="stop-color:#858585"/>
			<stop  offset="1" style="stop-color:#FFFFFF;stop-opacity:0"/>
		</linearGradient>
		<path id="XMLID_26_" class="tic43" d="M695,661.7c1.8,0.3,3.5,0.4,5.3,0.2l19.7-1.3l-3.7-15.6c-8.8,1.5-31.2,4.5-44.8-0.7
			c-17.2-6.6-37.8,3.9-50.7,13.2c-7.7,5.5-15.6,10.3-22.8,12.3l3.4,0.9c7.8,2.2,16.2,1.3,23.4-2.5l11.4-6c9.4-4.9,20.1-6.7,30.5-5.1
			L695,661.7z"/>
		<linearGradient id="XMLID_105_" gradientUnits="userSpaceOnUse" x1="924.3756" y1="466.1722" x2="679.4323" y2="193.1324">
			<stop  offset="0" style="stop-color:#FFFFFF;stop-opacity:0"/>
			<stop  offset="1" style="stop-color:#858585"/>
		</linearGradient>
		<path id="XMLID_25_" class="tic44" d="M895.8,361.3c-0.4-1.5-1.3-2.8-2.6-3.8l-19-14.3l-54.5,8.2l-8.5,1.3c-0.2-6.3-2-14-3-18.9
			l-34.5,13.3c0.4,4.4,1.2,8,2.4,10.8l-8,1.2l-5.3,0.8l118.3,110.6l79.3,74.2C942.6,504,918.3,441.5,895.8,361.3z"/>
		<g id="XMLID_17_">
			<linearGradient id="XMLID_106_" gradientUnits="userSpaceOnUse" x1="651.8904" y1="185.8831" x2="848.0767" y2="185.8831">
				<stop  offset="0" style="stop-color:#D63F91"/>
				<stop  offset="1" style="stop-color:#AB3ACA"/>
			</linearGradient>
			<path id="XMLID_24_" class="tic45" d="M684.9,245.3c0,0-9.9,0.7-15.9-4.4c-3.6-3-9-10.2-12.8-15.5c-3-4.1-4.5-9.1-4.3-14.2
				c0.6-13,4-38.5,20.4-51.1c21.9-16.7,60.5-32.6,121-33.7c4.3-0.1,8.3,1.9,10.8,5.4l13.9,19.4c0,0,11.2,2.4,24.5,7.8
				c4.2,1.7,6.4,6.2,5.3,10.5c-3.5,14-11.4,44.1-18,57.9l-8.2,12.7l-81.8,1.1L684.9,245.3z"/>
			<linearGradient id="XMLID_107_" gradientUnits="userSpaceOnUse" x1="695.5286" y1="286.5655" x2="852.8934" y2="235.4346">
				<stop  offset="0" style="stop-color:#FFE9D4"/>
				<stop  offset="1" style="stop-color:#FABCA8"/>
			</linearGradient>
			<path id="XMLID_23_" class="tic46" d="M743,352.3c1.4,2.2,4,3.5,6.6,3.3c5.7-0.4,16.4-1.5,28.8-4.2c9.9-2.1,21.7-6.1,30.3-9.4
				c7.6-2.8,12.6-10.1,12.6-18.1v-64.6c0,0,8.6,10.2,20.4,2c11.8-8.2,11.4-31.2,6.3-39.8s-26.5-3.5-28.2,10.8
				c-43,0.9-51.2-59.2-51.2-59.2l-57.9,26.4c-12.8,5.8-27.2,7.1-40.8,3.6l-1.6-0.4c0,0,22.1,61.5,39.2,91.4
				C721.3,318.1,737.1,343.2,743,352.3z"/>
			<linearGradient id="XMLID_108_" gradientUnits="userSpaceOnUse" x1="825.3312" y1="201.6107" x2="794.6768" y2="159.1067">
				<stop  offset="0" style="stop-color:#FFFFFF;stop-opacity:0"/>
				<stop  offset="1" style="stop-color:#858585"/>
			</linearGradient>
			<path id="XMLID_22_" class="tic47" d="M782.2,210.4c7.8,12,19.6,22.3,37.5,21.9c0.9-7.6,7.3-12.6,13.9-14.3
				c5.6-15.3,11.3-37.2,14.1-48.5c0.7-2.7,0.1-5.4-1.5-7.5c-11.3,1.7-22.1,7.4-33.2,15.5C800.8,186.5,791.5,201.3,782.2,210.4z"/>
			<linearGradient id="XMLID_109_" gradientUnits="userSpaceOnUse" x1="807.46" y1="178.9964" x2="772.7531" y2="142.5826">
				<stop  offset="0" style="stop-color:#FFFFFF;stop-opacity:0"/>
				<stop  offset="1" style="stop-color:#858585"/>
			</linearGradient>
			<path id="XMLID_21_" class="tic48" d="M842.5,159c-13.3-5.3-24.5-7.8-24.5-7.8c-17.5,4.3-25.4,11.4-49.4,21.9
				c0,0,2.8,20.4,13.6,37.3c9.2-9.2,18.6-23.9,30.9-32.9c11.1-8.1,21.9-13.8,33.2-15.5C845.4,160.7,844.1,159.6,842.5,159z"/>
			<linearGradient id="XMLID_110_" gradientUnits="userSpaceOnUse" x1="818.6326" y1="332.3182" x2="770.3215" y2="14.3303">
				<stop  offset="0" style="stop-color:#FFFFFF;stop-opacity:0"/>
				<stop  offset="1" style="stop-color:#858585"/>
			</linearGradient>
			<path id="XMLID_20_" class="tic49" d="M847.9,221.5c-5.1-8.6-26.5-3.5-28.2,10.8c-43,0.9-51.2-59.2-51.2-59.2l-20.4,9.3
				c8.3,8.5,28.5,31.5,39.8,62.9c10.5,29.1,21.4,71.7,26.7,93.1c4.1-3.6,6.5-8.8,6.5-14.5v-64.6c0,0,8.6,10.2,20.4,2
				C853.5,253.2,853,230.1,847.9,221.5z"/>
			<linearGradient id="XMLID_111_" gradientUnits="userSpaceOnUse" x1="837.2365" y1="235.9968" x2="824.6493" y2="220.4528">
				<stop  offset="0" style="stop-color:#FFFFFF;stop-opacity:0"/>
				<stop  offset="1" style="stop-color:#858585"/>
			</linearGradient>
			<path id="XMLID_19_" class="tic50" d="M827.1,239.8c-0.3-7.1,3.8-15,11.7-15s7.6,13.8,7.6,13.8L827.1,239.8z"/>
			
				<linearGradient id="XMLID_112_" gradientUnits="userSpaceOnUse" x1="702.1299" y1="381.9229" x2="692.2907" y2="369.7726" gradientTransform="matrix(0.7675 0.4299 -0.4886 0.8725 482.2899 -382.4878)">
				<stop  offset="0" style="stop-color:#FFFFFF;stop-opacity:0"/>
				<stop  offset="1" style="stop-color:#858585"/>
			</linearGradient>
			<path id="XMLID_18_" class="tic51" d="M827,251.7c2.5-5,8-8.9,12.7-6.3c4.7,2.6-0.7,12-0.7,12L827,251.7z"/>
		</g>
		<linearGradient id="XMLID_113_" gradientUnits="userSpaceOnUse" x1="823.1124" y1="718.121" x2="914.7487" y2="697.7214">
			<stop  offset="0" style="stop-color:#FFFFFF"/>
			<stop  offset="1" style="stop-color:#DBDBE0"/>
		</linearGradient>
		<path id="XMLID_16_" class="tic52" d="M898.8,709.8c13.3-11.4,23.3-19.5,51.8-18.7c28.6,0.7,101.6,10.9,101.6,10.9l-54.8-31.6
			c0,0-69.5-1.9-94.7-2.4s-40.6,8.9-43.3,17.8L898.8,709.8z"/>
		<linearGradient id="XMLID_114_" gradientUnits="userSpaceOnUse" x1="805.7321" y1="729.7455" x2="804.8566" y2="710.9229">
			<stop  offset="0.1129" style="stop-color:#AB3ACA"/>
			<stop  offset="0.3629" style="stop-color:#B43BBF"/>
			<stop  offset="0.8066" style="stop-color:#CA3EA0"/>
			<stop  offset="1" style="stop-color:#D63F91"/>
		</linearGradient>
		<path id="XMLID_15_" class="tic53" d="M768,710.9l-53.4,8.7l2.8-19.6l-8.2-22.1v5.3l2.8,45.7c0,0,78.1,0,102.8,0
			c20.9,0,66.4-3.3,80-4.4c2.2-0.2,3.9-2,3.9-4.3v-16.5l-8.7-5.7L768,710.9z"/>
		<linearGradient id="XMLID_115_" gradientUnits="userSpaceOnUse" x1="655.0473" y1="703.509" x2="844.6403" y2="703.509">
			<stop  offset="0" style="stop-color:#FFFFFF"/>
			<stop  offset="0.2375" style="stop-color:#F3F3F4"/>
			<stop  offset="0.6771" style="stop-color:#E1E1E5"/>
			<stop  offset="1" style="stop-color:#DBDBE0"/>
		</linearGradient>
		<path id="XMLID_14_" class="tic54" d="M898.8,709.8l-42.2-27.6c-10.3-2.5-25.9,3.2-64.1,4c-38.3,0.8-83.3-2.2-83.3-2.2l5.3,41.6
			c0,0,35.8,0.2,82.6-2.3c14.4-0.8,29.6-2.3,43.7-4.1C851.4,717.8,889.7,706,898.8,709.8z"/>
		<linearGradient id="XMLID_116_" gradientUnits="userSpaceOnUse" x1="720.585" y1="697.5984" x2="910.1779" y2="697.5984">
			<stop  offset="0" style="stop-color:#FFFFFF"/>
			<stop  offset="0.3266" style="stop-color:#F8F8F9"/>
			<stop  offset="0.7881" style="stop-color:#E6E6E9"/>
			<stop  offset="1" style="stop-color:#DBDBE0"/>
		</linearGradient>
		<path id="XMLID_13_" class="tic55" d="M898.8,709.8l-42.2-33.5c-10.3-2.5-25.9,3.2-64.1,4c-38.3,0.8-83.3-2.2-83.3-2.2l5.3,41.6
			c0,0,35.8,0.2,82.6-2.3c14.4-0.8,29.6-2.3,43.7-4.1C851.4,711.8,886,700.6,898.8,709.8z"/>
		<linearGradient id="XMLID_117_" gradientUnits="userSpaceOnUse" x1="944.9338" y1="684.727" x2="1037.0394" y2="664.2229">
			<stop  offset="0" style="stop-color:#FFFFFF"/>
			<stop  offset="1" style="stop-color:#DBDBE0"/>
		</linearGradient>
		<path id="XMLID_12_" class="tic56" d="M898.8,709.8c7.2-12.2,23.3-25.4,51.8-24.6c28.6,0.7,101.6,10.9,101.6,10.9l-54.8-31.6
			c0,0-69.5-1.9-94.7-2.4s-42.2,6.3-44.8,15.2L898.8,709.8z"/>
		<linearGradient id="XMLID_118_" gradientUnits="userSpaceOnUse" x1="732.7231" y1="452.3585" x2="802.9064" y2="632.1431">
			<stop  offset="0" style="stop-color:#858585"/>
			<stop  offset="1" style="stop-color:#FFFFFF;stop-opacity:0"/>
		</linearGradient>
		<path id="XMLID_11_" class="tic57" d="M775.8,607.9c-8.3-53-15.3-176.9-15.3-176.9l0,0c-3.7,47.6-6.2,111.4-2.1,179.5
			C764.4,609.7,770.2,608.8,775.8,607.9z"/>
		<linearGradient id="XMLID_119_" gradientUnits="userSpaceOnUse" x1="109.4231" y1="470.1952" x2="154.8576" y2="455.4326">
			<stop  offset="0" style="stop-color:#63F2F7"/>
			<stop  offset="1" style="stop-color:#30DAE2"/>
		</linearGradient>
		<path id="XMLID_10_" class="tic58" d="M168.1,537.8c5.6,0,9,0.1,9,0.1s1.8,0,4.8,0c-5.1-19.5-25-95.5-32.4-115.6
			c-8.5-23.2-41.6-51.5-51-37.7c-9.5,13.8-15.1,50.5,10.9,85C130,496.8,157.5,526.6,168.1,537.8z"/>
		<linearGradient id="XMLID_120_" gradientUnits="userSpaceOnUse" x1="180.6555" y1="685.7526" x2="281.8101" y2="465.7816">
			<stop  offset="0" style="stop-color:#FFFFFF;stop-opacity:0"/>
			<stop  offset="1" style="stop-color:#858585"/>
		</linearGradient>
		<path id="XMLID_9_" class="tic59" d="M255.5,541.8c-14.3-1.9-29.7-2.9-43-3.5l4.9,154.1c-46.4,12-85,4.8-101.8,0.3l0.1,0.5
			c0.6,4.7,4,8.5,8.5,9.8c9,2.5,26.4,6,52.9,6c26.4,0,43.8-3.5,52.9-6c4.5-1.3,7.8-5.1,8.5-9.8l20-147.6
			C258.7,543.8,257.4,542.1,255.5,541.8z"/>
		<g id="XMLID_5_">
			<linearGradient id="XMLID_121_" gradientUnits="userSpaceOnUse" x1="423.9533" y1="358.13" x2="549.3292" y2="151.6285">
				<stop  offset="0" style="stop-color:#947FFF"/>
				<stop  offset="0.632" style="stop-color:#5A42D9"/>
				<stop  offset="0.8871" style="stop-color:#4228C9"/>
			</linearGradient>
			<path id="XMLID_8_" class="tic60" d="M540.1,232.1H408.3c-20.1,0-36.5,16.3-36.5,36.5v13.7v52.8l29.4-13.2
				c4.6-2.1,9.7-3.2,14.8-3.2h124c20.1,0,36.5-16.3,36.5-36.5v-13.7C576.5,248.4,560.2,232.1,540.1,232.1z"/>
			<linearGradient id="XMLID_122_" gradientUnits="userSpaceOnUse" x1="455.3922" y1="284.8213" x2="501.4478" y2="208.965">
				<stop  offset="0" style="stop-color:#EDF5FF"/>
				<stop  offset="0.4839" style="stop-color:#F8FBFF"/>
				<stop  offset="1" style="stop-color:#FFFFFF"/>
			</linearGradient>
			<path id="XMLID_7_" class="tic61" d="M523.7,265h-105c-2.4,0-4.3-1.9-4.3-4.3v-3.8c0-2.4,1.9-4.3,4.3-4.3h105
				c2.4,0,4.3,1.9,4.3,4.3v3.8C528,263,526.1,265,523.7,265z"/>
			<linearGradient id="XMLID_123_" gradientUnits="userSpaceOnUse" x1="436.0533" y1="301.094" x2="463.5912" y2="255.7375">
				<stop  offset="0" style="stop-color:#EDF5FF"/>
				<stop  offset="0.4839" style="stop-color:#F8FBFF"/>
				<stop  offset="1" style="stop-color:#FFFFFF"/>
			</linearGradient>
			<path id="XMLID_6_" class="tic62" d="M472.3,291.7h-53.6c-2.4,0-4.3-1.9-4.3-4.3v-3.8c0-2.4,1.9-4.3,4.3-4.3h53.6
				c2.4,0,4.3,1.9,4.3,4.3v3.8C476.6,289.8,474.7,291.7,472.3,291.7z"/>
		</g>
		<g id="XMLID_1_">
			
				<linearGradient id="XMLID_124_" gradientUnits="userSpaceOnUse" x1="1061.895" y1="242.1057" x2="1187.2709" y2="35.6041" gradientTransform="matrix(-1 0 0 1 1618.4442 0)">
				<stop  offset="0" style="stop-color:#EDF5FF"/>
				<stop  offset="0.4839" style="stop-color:#F8FBFF"/>
				<stop  offset="1" style="stop-color:#FFFFFF"/>
			</linearGradient>
			<path id="XMLID_4_" class="tic63" d="M440.4,116.1h131.8c20.1,0,36.5,16.3,36.5,36.5v13.7V219l-29.4-13.2
				c-4.6-2.1-9.7-3.2-14.8-3.2h-124c-20.1,0-36.5-16.3-36.5-36.5v-13.7C404,132.4,420.3,116.1,440.4,116.1z"/>
			
				<linearGradient id="XMLID_125_" gradientUnits="userSpaceOnUse" x1="1110.4437" y1="88.3115" x2="1107.5723" y2="209.871" gradientTransform="matrix(-1 0 0 1 1618.4442 0)">
				<stop  offset="0" style="stop-color:#947FFF"/>
				<stop  offset="0.632" style="stop-color:#5A42D9"/>
				<stop  offset="0.8871" style="stop-color:#4228C9"/>
			</linearGradient>
			<path id="XMLID_3_" class="tic64" d="M456.8,148.9h105c2.4,0,4.3-1.9,4.3-4.3v-3.8c0-2.4-1.9-4.3-4.3-4.3h-105
				c-2.4,0-4.3,1.9-4.3,4.3v3.8C452.5,147,454.4,148.9,456.8,148.9z"/>
			
				<linearGradient id="XMLID_126_" gradientUnits="userSpaceOnUse" x1="1085.3932" y1="87.512" x2="1082.5201" y2="209.1363" gradientTransform="matrix(-1 0 0 1 1618.4442 0)">
				<stop  offset="0" style="stop-color:#947FFF"/>
				<stop  offset="0.632" style="stop-color:#5A42D9"/>
				<stop  offset="0.8871" style="stop-color:#4228C9"/>
			</linearGradient>
			<path id="XMLID_2_" class="tic65" d="M508.2,175.7h53.6c2.4,0,4.3-1.9,4.3-4.3v-3.8c0-2.4-1.9-4.3-4.3-4.3h-53.6
				c-2.4,0-4.3,1.9-4.3,4.3v3.8C503.9,173.8,505.8,175.7,508.2,175.7z"/>
		</g>
	</g>
</g>
</svg>
