<?xml version="1.0" encoding="utf-8"?>
<!-- Generator: Adobe Illustrator 23.0.3, SVG Export Plug-In . SVG Version: 6.00 Build 0)  -->
<svg version="1.1" xmlns="http://www.w3.org/2000/svg" xmlns:xlink="http://www.w3.org/1999/xlink" x="0px" y="0px"
	 viewBox="0 0 750 500" style="enable-background:new 0 0 750 500;" xml:space="preserve">
<style type="text/css">
	.exp0{fill:url(#SVGID_1_);}
	.exp1{fill:url(#SVGID_2_);}
	.exp2{opacity:0.8;fill:url(#SVGID_3_);}
	.exp3{opacity:0.8;fill:url(#SVGID_4_);}
	.exp4{opacity:0.8;fill:url(#SVGID_5_);}
	.exp5{opacity:0.8;fill:url(#SVGID_6_);}
	.exp6{opacity:0.8;fill:url(#SVGID_7_);}
	.exp7{opacity:0.8;fill:url(#SVGID_8_);}
	.exp8{fill:#CBDFEF;}
	.exp9{opacity:0.8;fill:url(#SVGID_9_);}
	.exp10{fill:#FFFFFF;}
	.exp11{fill:url(#SVGID_10_);}
	.exp12{fill:#809297;}
	.exp13{fill:url(#XMLID_2_);}
	.exp14{fill:#8A9EA2;}
	.exp15{fill:url(#XMLID_3_);}
	.exp16{fill:#92A7AC;}
	.exp17{fill:url(#XMLID_4_);}
	.exp18{opacity:0.1;fill:#FFFFFF;}
	.exp19{fill:#FDC870;}
	.exp20{fill:url(#SVGID_11_);}
	.exp21{fill:url(#XMLID_5_);}
	.exp22{fill:url(#SVGID_12_);}
	.exp23{fill:url(#SVGID_13_);}
	.exp24{fill:url(#SVGID_14_);}
	.exp25{opacity:0.7;fill:url(#SVGID_15_);}
	.exp26{opacity:0.7;fill:url(#SVGID_16_);}
	.exp27{fill:url(#SVGID_17_);}
	.exp28{opacity:0.8;fill:url(#SVGID_18_);}
	.exp29{fill:url(#SVGID_19_);}
	.exp30{fill:#FFB300;}
	.exp31{fill:#FFA000;}
	.exp32{fill:#FFCA28;}
	.exp33{opacity:0.7;fill:url(#SVGID_20_);}
	.exp34{opacity:0.7;fill:url(#SVGID_21_);}
	.exp35{fill:url(#SVGID_22_);}
	.exp36{opacity:0.8;fill:url(#SVGID_23_);}
	.exp37{fill:url(#SVGID_24_);}
	.exp38{fill:#D32F2F;}
	.exp39{opacity:0.8;fill:url(#SVGID_25_);}
	.exp40{fill:#EF5350;}
	.exp41{fill:none;stroke:#FFFFFF;stroke-width:1.0404;stroke-miterlimit:10;}
	.exp42{opacity:0.7;fill:url(#SVGID_26_);}
	.exp43{opacity:0.7;fill:url(#SVGID_27_);}
	.exp44{fill:url(#SVGID_28_);}
	.exp45{fill:#25284C;}
	.exp46{fill:#111638;}
	.exp47{fill:#F5F5F5;}
	.exp48{fill:#7B92B9;}
	.exp49{fill:#6A7EA2;}
	.exp50{fill:none;stroke:#FFFFFF;stroke-width:0.7521;stroke-miterlimit:10;}
	.exp51{opacity:0.8;fill:url(#SVGID_29_);}
	.exp52{opacity:0.8;fill:url(#SVGID_30_);}
	.exp53{opacity:0.8;fill:url(#SVGID_31_);}
	.exp54{fill:url(#SVGID_32_);}
	.exp55{fill:url(#SVGID_33_);}
	.exp56{opacity:0.7;fill:url(#SVGID_34_);}
	.exp57{fill:url(#SVGID_35_);}
	.exp58{fill:none;stroke:#FFFFFF;stroke-width:1.0404;stroke-linecap:round;stroke-linejoin:round;stroke-miterlimit:10;}
	.exp59{fill:#FFEE58;}
	.exp60{fill:none;stroke:#FFFFFF;stroke-width:0.5202;stroke-linecap:round;stroke-linejoin:round;stroke-miterlimit:10;}
	.exp61{fill:url(#SVGID_36_);}
</style>
<g id="Background">
</g>
<g id="Object">
	<g>
		<linearGradient id="SVGID_1_" gradientUnits="userSpaceOnUse" x1="375" y1="490.9609" x2="375" y2="6.5163">
			<stop  offset="1.860120e-03" style="stop-color:#AC24B9"/>
			<stop  offset="1" style="stop-color:#2E2142"/>
		</linearGradient>
		<path class="exp0" d="M638,371.8c-0.8,4.4-1.7,8.8-2.7,13.2c-0.8,3.3-1.6,6.7-2.5,9.9c-5,18.2-12.2,36.3-22.1,52.3
			c-10.1,16.4-23.1,30.7-39.6,40.6c-8.9,5.4-18.4,9.2-28.3,12.1H205.3c-32.6-17.7-61.3-48.9-55-85.4c5.4-31.8,10.5-63.5-0.6-92.8
			c-8.1-21.3-24.1-38.8-33-59.8c-22.2-52,5.7-99.1,47.2-127.9c1.5-1,3-2.1,4.6-3.1c0.4-0.2,0.7-0.5,1.1-0.7c1.7-1.1,3.4-2.2,5-3.3
			c3.6-2.5,7-5.1,10.4-7.9h0c2.5-2.1,5-4.2,7.5-6.4c0.6-0.5,1.2-1,1.7-1.5c3.4-3,6.7-6.2,10-9.4c1.7-1.7,3.4-3.4,5.1-5.1
			c13.3-13.3,26.1-27.3,40.1-39.4c13.4-11.6,27.8-21.5,44.9-27.7c10.7-3.9,21.6-6.6,32.7-8.1c43.7-6.2,89.3,5.5,124.8,32.7
			c1.7,1.3,3.5,2.7,5.2,4.1c18.4,15,35.2,34.1,42.7,56.2c9.4,27.8,23.3,54.6,48.6,71.2c20.9,13.6,40.6,22.7,57.2,42.5
			c6,7.1,11.2,14.7,15.6,22.5c3.6,6.4,6.7,13,9.3,19.7c3.5,9,6.1,18.3,7.9,27.7C642.6,322.2,642.2,347.4,638,371.8z"/>
		<linearGradient id="SVGID_2_" gradientUnits="userSpaceOnUse" x1="135.586" y1="486.169" x2="109.1478" y2="319.6076">
			<stop  offset="1.860120e-03" style="stop-color:#AC24B9"/>
			<stop  offset="1" style="stop-color:#2E2142"/>
		</linearGradient>
		<path class="exp1" d="M112.8,428.2c-0.5,9.2,0,18.9,4.7,26.9c3.9,6.7,13,11.9,19.3,7.3c4.8-3.4,5.1-10.5,3.5-16.2
			c-1.6-5.7-4.6-11-5.1-16.9c-0.7-9.2,10.2-32.9-6.2-34C114.2,394.5,113.3,419.1,112.8,428.2z"/>
		<g>
			<linearGradient id="SVGID_3_" gradientUnits="userSpaceOnUse" x1="235.1906" y1="489.6731" x2="240.2332" y2="420.4514">
				<stop  offset="0" style="stop-color:#FFFFFF;stop-opacity:0"/>
				<stop  offset="1" style="stop-color:#662D8D"/>
			</linearGradient>
			<ellipse class="exp2" cx="237.3" cy="460.9" rx="31.8" ry="12.5"/>
			<linearGradient id="SVGID_4_" gradientUnits="userSpaceOnUse" x1="397.5664" y1="491.3263" x2="402.609" y2="422.105">
				<stop  offset="0" style="stop-color:#FFFFFF;stop-opacity:0"/>
				<stop  offset="1" style="stop-color:#662D8D"/>
			</linearGradient>
			<ellipse class="exp3" cx="399.7" cy="462.5" rx="31.8" ry="12.5"/>
			<linearGradient id="SVGID_5_" gradientUnits="userSpaceOnUse" x1="410.1799" y1="416.3871" x2="184.636" y2="413.6365">
				<stop  offset="0" style="stop-color:#FFFFFF;stop-opacity:0"/>
				<stop  offset="1" style="stop-color:#662D8D"/>
			</linearGradient>
			<polygon class="exp4" points="216.2,405.7 244.9,405.7 308.9,435.4 300.6,454.3 330.5,454.3 395.6,413.9 315.9,386.1 268.6,375.4 
							"/>
			<linearGradient id="SVGID_6_" gradientUnits="userSpaceOnUse" x1="344.869" y1="190.4722" x2="222.9291" y2="327.0813">
				<stop  offset="0" style="stop-color:#FFFFFF;stop-opacity:0"/>
				<stop  offset="1" style="stop-color:#662D8D"/>
			</linearGradient>
			<rect x="222.1" y="187.9" class="exp5" width="157.7" height="103.5"/>
			<linearGradient id="SVGID_7_" gradientUnits="userSpaceOnUse" x1="718.3787" y1="395.5524" x2="459.3207" y2="395.5524">
				<stop  offset="0" style="stop-color:#FFFFFF;stop-opacity:0"/>
				<stop  offset="1" style="stop-color:#662D8D"/>
			</linearGradient>
			<path class="exp6" d="M638,343.8v28c-0.8,4.4-1.7,8.8-2.7,13.2c-0.8,3.3-1.6,6.7-2.5,9.9c-5,18.2-12.2,36.3-22.1,52.3h-82.4V343.8
				H638z"/>
			<linearGradient id="SVGID_8_" gradientUnits="userSpaceOnUse" x1="680.4819" y1="317.8976" x2="404.4128" y2="317.8976">
				<stop  offset="0" style="stop-color:#FFFFFF;stop-opacity:0"/>
				<stop  offset="1" style="stop-color:#662D8D"/>
			</linearGradient>
			<path class="exp7" d="M638,298.3v73.5c-0.8,4.4-1.7,8.8-2.7,13.2h-230V250.8h215.6c3.6,6.4,6.7,13,9.3,19.7
				C633.5,279.5,636.1,288.8,638,298.3z"/>
			<g>
				<path class="exp8" d="M456.9,352.4v-73.9H291.7v73.9l0,0c0,12.2,8.1,24.4,24.2,33.7c32.2,18.6,84.5,18.6,116.8,0
					C448.8,376.8,456.9,364.6,456.9,352.4z"/>
				<linearGradient id="SVGID_9_" gradientUnits="userSpaceOnUse" x1="361.9812" y1="339.2654" x2="486.1148" y2="339.2654">
					<stop  offset="0" style="stop-color:#FFFFFF;stop-opacity:0"/>
					<stop  offset="1" style="stop-color:#662D8D"/>
				</linearGradient>
				<path class="exp9" d="M456.9,352.4v-73.9H291.7v73.9l0,0c0,12.2,8.1,24.4,24.2,33.7c32.2,18.6,84.5,18.6,116.8,0
					C448.8,376.8,456.9,364.6,456.9,352.4z"/>
				<ellipse class="exp10" cx="374.3" cy="278.5" rx="82.6" ry="47.7"/>
				<g>
					<linearGradient id="SVGID_10_" gradientUnits="userSpaceOnUse" x1="374.2985" y1="192.6576" x2="374.2985" y2="356.1128">
						<stop  offset="1.694780e-03" style="stop-color:#00D4C8"/>
						<stop  offset="1" style="stop-color:#00D2C7;stop-opacity:0"/>
					</linearGradient>
					<ellipse class="exp11" cx="374.3" cy="269.2" rx="82.6" ry="47.7"/>
					<g>
						<path id="XMLID_914_" class="exp12" d="M394.4,255c-0.3,8.6-9.8,15.3-21.3,14.9c-11.5-0.4-20.5-7.7-20.2-16.3
							c0.3-8.6,9.8-15.3,21.3-14.9C385.7,239.1,394.7,246.4,394.4,255z"/>
						<linearGradient id="XMLID_2_" gradientUnits="userSpaceOnUse" x1="352.9565" y1="254.2977" x2="394.4356" y2="254.2977">
							<stop  offset="3.946110e-03" style="stop-color:#FFFFFF;stop-opacity:0"/>
							<stop  offset="1" style="stop-color:#92A7AC"/>
						</linearGradient>
						<path id="XMLID_913_" class="exp13" d="M394.4,255c-0.3,8.6-9.8,15.3-21.3,14.9c-11.5-0.4-20.5-7.7-20.2-16.3
							c0.3-8.6,9.8-15.3,21.3-14.9C385.7,239.1,394.7,246.4,394.4,255z"/>
						<path id="XMLID_912_" class="exp14" d="M408.2,236.4c-0.4,10.5-15.8,18.5-34.5,17.9c-18.7-0.6-33.6-9.6-33.2-20.1
							c0.4-10.5,15.8-18.5,34.5-17.9C393.7,216.9,408.5,225.9,408.2,236.4z"/>
						<linearGradient id="XMLID_3_" gradientUnits="userSpaceOnUse" x1="362.7318" y1="235.2928" x2="401.9537" y2="235.2928">
							<stop  offset="3.946110e-03" style="stop-color:#FFFFFF;stop-opacity:0"/>
							<stop  offset="1" style="stop-color:#92A7AC"/>
						</linearGradient>
						<path id="XMLID_907_" class="exp15" d="M408.2,236.4c-0.4,10.5-15.8,18.5-34.5,17.9c-18.7-0.6-33.6-9.6-33.2-20.1
							c0.4-10.5,15.8-18.5,34.5-17.9C393.7,216.9,408.5,225.9,408.2,236.4z"/>
						
							<ellipse id="XMLID_906_" transform="matrix(3.361241e-02 -0.9994 0.9994 3.361241e-02 138.7255 590.5411)" class="exp16" cx="374.7" cy="223.5" rx="19" ry="33.9"/>
						<linearGradient id="XMLID_4_" gradientUnits="userSpaceOnUse" x1="356.5319" y1="223.5358" x2="403.7265" y2="223.5358">
							<stop  offset="3.946110e-03" style="stop-color:#FFFFFF;stop-opacity:0"/>
							<stop  offset="1" style="stop-color:#92A7AC"/>
						</linearGradient>
						<path id="XMLID_905_" class="exp17" d="M408.6,224.7c-0.4,10.5-15.8,18.5-34.5,17.9c-18.7-0.6-33.6-9.6-33.2-20.1
							c0.4-10.5,15.8-18.5,34.5-17.9C394.1,205.2,408.9,214.2,408.6,224.7z"/>
						<path id="XMLID_904_" class="exp18" d="M346,227.9c-0.9,0.5-2.3-0.3-3-1.8c-0.7-1.5-0.6-3,0.4-3.5c0.9-0.5,2.3,0.3,3,1.8
							C347.1,225.8,346.9,227.4,346,227.9z"/>
						<path id="XMLID_897_" class="exp18" d="M347.8,230.7c-0.6,0.3-1.3,0.1-1.6-0.4c-0.3-0.5,0-1.2,0.6-1.5c0.6-0.3,1.3-0.1,1.6,0.4
							C348.7,229.7,348.4,230.4,347.8,230.7z"/>
						<path id="XMLID_896_" class="exp18" d="M346.1,240.5c-0.9,0.5-2.3-0.3-3-1.8c-0.7-1.5-0.6-3,0.4-3.5c0.9-0.5,2.3,0.3,3,1.8
							C347.2,238.5,347,240,346.1,240.5z"/>
						<path id="XMLID_895_" class="exp18" d="M347.9,243.3c-0.6,0.3-1.3,0.1-1.6-0.4c-0.3-0.5,0-1.2,0.6-1.5c0.6-0.3,1.3-0.1,1.6,0.4
							C348.8,242.3,348.5,243,347.9,243.3z"/>
						<path id="XMLID_894_" class="exp19" d="M435.9,144.2c0.2-34.1-27.2-56.8-61.2-57c-34-0.2-61.7,22.1-61.9,56.2
							c-0.2,33.4,16.9,38.5,25.6,55.7c2.7,5.4,1.7,10.2,1.7,10.2c-0.1,13,14,20.3,33.7,20.4c19.7,0.1,33.9-7,34-20
							c0,0-0.9-4.8,1.9-10.1C418.5,182.5,435.7,177.6,435.9,144.2z"/>
						<linearGradient id="SVGID_11_" gradientUnits="userSpaceOnUse" x1="360.0346" y1="136.1727" x2="413.4411" y2="199.3704">
							<stop  offset="3.946110e-03" style="stop-color:#FFFFFF;stop-opacity:0"/>
							<stop  offset="1" style="stop-color:#FDC870"/>
						</linearGradient>
						<path class="exp20" d="M435.9,144.2c0,2.1-0.1,4.1-0.2,5.9c-0.1,1.4-0.3,2.8-0.4,4.1c-0.9,6.8-2.6,12.1-4.9,16.6
							c-0.1,0.1-0.1,0.2-0.1,0.3c-5.6,11.1-14.3,17-20,27.2c-0.2,0.4-0.4,0.8-0.6,1.2c-2.8,5.3-1.9,10.1-1.9,10.1c0,0.5,0,1-0.1,1.5
							c0,0.2,0,0.5-0.1,0.7c0,0.1,0,0.2-0.1,0.3c0,0.2-0.1,0.4-0.1,0.6c0,0.2-0.1,0.4-0.1,0.6c-0.1,0.3-0.2,0.6-0.2,0.9
							c0,0,0,0.1,0,0.1c-0.3,0.8-0.6,1.6-1,2.3c0,0.1,0,0.1-0.1,0.1c-3.4,6.4-11.3,10.5-21.8,12.1c-3.2,0.5-6.7,0.7-10.4,0.7
							c-19.7-0.1-33.8-7.5-33.7-20.5c0,0,1-4.8-1.7-10.2c-8.7-17.2-25.8-22.2-25.6-55.7c0.2-34.1,27.9-56.5,61.9-56.2
							C408.7,87.4,436.1,110.1,435.9,144.2z"/>
						
							<linearGradient id="XMLID_5_" gradientUnits="userSpaceOnUse" x1="405.8132" y1="158.3319" x2="405.8132" y2="189.1497" gradientTransform="matrix(0.9996 -2.730000e-02 2.730000e-02 0.9996 -36.759 -18.9818)">
							<stop  offset="3.946110e-03" style="stop-color:#FFFFFF;stop-opacity:0"/>
							<stop  offset="1" style="stop-color:#FDC870"/>
						</linearGradient>
						<path id="XMLID_828_" class="exp21" d="M393.8,173.7c-1.1-6.5-8.4-15.1-13.7-6.6c-3.7,5.8-3.3,14-3.3,20.8v0.4
							c-0.6,0-1.2,0.1-1.8,0.1c-0.2,0-0.3,0-0.5,0.1c-0.1,0-0.3-0.1-0.5-0.1c-0.6,0-1.2,0-1.8-0.1v-0.4c0.1-5.9,0.1-11.9-1.7-17.6
							c-2.8-8.9-11-8.5-14.2-0.1c-3.1,8-0.2,14.1,5.2,17.7c2.1,1.4,4.7,2.5,7.4,3.1c0,0.2,0,0.3,0,0.5c0,4.4,0,8.8-0.1,13.2
							c0,3.9,0,7.8-0.1,11.7c0,1.8,0,3.5,0,5.3c0,2.6,0,5.2,0,7.8c1,0.1,2.1,0.1,3.2,0.2c0-2.7,0-5.4,0-8.1c0-1.8,0-3.6,0-5.3
							c0-3.9,0-7.8,0.1-11.8c0-4.3,0-8.7,0.1-13c0.6,0.1,1.2,0.1,1.8,0.1c0.2,0,0.3,0,0.5-0.1c0.1,0,0.3,0.1,0.5,0.1
							c0.6,0,1.2,0,1.8-0.1c0,4.3-0.1,8.7-0.1,13c0,3.9-0.1,7.8-0.1,11.8c0,1.8,0,3.5,0,5.2c0,0.4,0,0.8,0,1.2c0,2.3,0,4.5,0,6.8v0
							c0,0,0,0,0,0c0,0,0,0,0,0c0,0,0,0,0.1,0c0,0,0,0,0,0h0.2c0.4,0,0.7,0,1,0c0.3,0,0.6,0,0.9,0c0.3,0,0.6,0,0.9-0.1
							c0-2.6,0-5.2,0-7.8c0-0.8,0-1.5,0-2.3c0-0.9,0-1.8,0-2.7c0-3.9,0-7.9,0.1-11.8c0-4.4,0-8.9,0.1-13.3v-0.4
							C388.5,189.5,395.5,183.8,393.8,173.7z M358.3,176.6c0-3.6,3.6-14.2,8-7.9c3.4,4.8,3,12.7,2.7,19.2
							C363.3,186.7,358.4,183.4,358.3,176.6z M379.9,187.9c-0.2-6.5-0.6-14.4,2.9-19.2c4.5-6.2,8,4.5,8,8
							C390.7,183.6,385.7,186.8,379.9,187.9z"/>
						
							<linearGradient id="SVGID_12_" gradientUnits="userSpaceOnUse" x1="426.2569" y1="183.4359" x2="379.0671" y2="104.157" gradientTransform="matrix(0.9996 -2.730000e-02 2.730000e-02 0.9996 -36.759 -18.9818)">
							<stop  offset="3.946110e-03" style="stop-color:#FFFFFF;stop-opacity:0"/>
							<stop  offset="1" style="stop-color:#FFFFFF"/>
						</linearGradient>
						<path class="exp22" d="M403.9,135.7c-16.6,10.2-43.9,10.9-61,1.7c-17.1-9.3-17.5-25-1-35.2c16.6-10.2,43.9-10.9,61-1.7
							C420.1,109.8,420.5,125.6,403.9,135.7z"/>
						<linearGradient id="SVGID_13_" gradientUnits="userSpaceOnUse" x1="341.7167" y1="175.7598" x2="290.7173" y2="151.0619">
							<stop  offset="3.946110e-03" style="stop-color:#FFFFFF;stop-opacity:0"/>
							<stop  offset="1" style="stop-color:#FFFFFF"/>
						</linearGradient>
						<path class="exp23" d="M321.2,161.3c2.9,8.3,8.3,16,13.9,22.4c5.9,6.7,13.1,13.4,14.3,22.3c0.2,1.2,0.2,2.5,0.8,3.6
							c0.6,1.1,2,1.9,3.1,1.4c0.6-0.3,1-0.8,1.3-1.4c2.4-3.9,3.3-8.8,2.3-13.3c-1.5-7.2-7.1-12.5-11.8-17.9
							c-4.5-5.2-8.4-11.9-9.9-18.7c-0.9-4.3-1.2-8.7-2.1-13c-0.4-2-1.1-4.1-2.3-5.8c-1.2-1.7-3.2-3-5.3-2.9
							c-2.2,0.1-4.2,1.7-5.3,3.6c-1.1,2-1.3,4.2-1.4,6.5C319,152.8,319.8,157.1,321.2,161.3z"/>
						<linearGradient id="SVGID_14_" gradientUnits="userSpaceOnUse" x1="366.8373" y1="229.3676" x2="410.295" y2="205.9672">
							<stop  offset="3.946110e-03" style="stop-color:#FFFFFF;stop-opacity:0"/>
							<stop  offset="1" style="stop-color:#FDC870"/>
						</linearGradient>
						<path class="exp24" d="M435.9,144.2c0,2.1-0.1,4-0.2,5.9c-0.1,1.4-0.3,2.8-0.4,4.1c-0.9,6.5-2.7,11.9-4.9,16.6
							c-0.1,0.1-0.1,0.2-0.1,0.3c-5.6,11.1-14.3,17-20,27.2c-0.2,0.4-0.4,0.8-0.6,1.2c-2.8,5.3-1.9,10.1-1.9,10.1c0,0.5,0,1-0.1,1.5
							c0,0.2,0,0.5-0.1,0.7c0,0.1,0,0.2-0.1,0.3c0,0.2-0.1,0.4-0.1,0.6c0,0.2-0.1,0.4-0.1,0.6c-0.1,0.3-0.2,0.6-0.2,0.9
							c0,0,0,0.1,0,0.1c-0.3,0.8-0.6,1.6-1,2.3c0,0.1,0,0.1-0.1,0.1c1.8,2.4,2.7,5,2.6,7.7c-0.1,2-0.7,4-1.9,5.8
							c1,1.9,1.5,3.9,1.4,5.9c-0.2,6.3-5.8,11.6-14.2,14.8c0.4,1.2,0.5,2.5,0.5,3.7c-0.3,8.6-9.8,15.3-21.3,14.9
							c-0.6,0-1.3-0.1-1.9-0.1c2.5-3,5.3-5.9,6.7-8.7c4.9-9.8,5.6-21.3,6.2-32.1c0-0.2,0-0.4,0-0.6c0.5-9.1,1-18.2,1.5-27.3
							c0.1-0.9,0.1-1.8,0.5-2.7c1.1-2.5,4.2-3,6.9-3.7C421.7,188.1,433.4,166.7,435.9,144.2z"/>
						<path class="exp19" d="M433.3,78.8c0,3-2.5,5.5-5.5,5.5s-5.5-2.5-5.5-5.5c0-3,2.5-5.5,5.5-5.5S433.3,75.8,433.3,78.8z"/>
						<path class="exp19" d="M433.3,230.8c0,3-2.5,5.5-5.5,5.5s-5.5-2.5-5.5-5.5s2.5-5.5,5.5-5.5S433.3,227.8,433.3,230.8z"/>
						<circle class="exp19" cx="328.2" cy="207.1" r="5.5"/>
						<circle class="exp19" cx="439.4" cy="62.5" r="3.5"/>
						<circle class="exp19" cx="433.3" cy="199.7" r="3.5"/>
						<circle class="exp19" cx="337.1" cy="60.5" r="3.5"/>
						<circle class="exp19" cx="442.8" cy="242.6" r="3.5"/>
						<circle class="exp19" cx="319.1" cy="260.4" r="3.5"/>
					</g>
					<g>
						<linearGradient id="SVGID_15_" gradientUnits="userSpaceOnUse" x1="240.3466" y1="188.707" x2="386.7318" y2="188.707">
							<stop  offset="1.694780e-03" style="stop-color:#00D4C8"/>
							<stop  offset="1" style="stop-color:#00D2C7;stop-opacity:0"/>
						</linearGradient>
						<path class="exp25" d="M456.9,269.2V60.5c0,12.2-8.1,24.4-24.2,33.7c-32.2,18.6-84.5,18.6-116.8,0
							c-16.1-9.3-24.2-21.5-24.2-33.7v208.7l0,0c0,12.2,8.1,24.4,24.2,33.7c32.2,18.6,84.5,18.6,116.8,0
							C448.8,293.6,456.9,281.4,456.9,269.2z"/>
						<linearGradient id="SVGID_16_" gradientUnits="userSpaceOnUse" x1="490.6447" y1="188.707" x2="387.8929" y2="188.707">
							<stop  offset="1.694780e-03" style="stop-color:#00D4C8"/>
							<stop  offset="1" style="stop-color:#00D2C7;stop-opacity:0"/>
						</linearGradient>
						<path class="exp26" d="M456.9,269.2V60.5c0,12.2-8.1,24.4-24.2,33.7c-32.2,18.6-84.5,18.6-116.8,0
							c-16.1-9.3-24.2-21.5-24.2-33.7v208.7l0,0c0,12.2,8.1,24.4,24.2,33.7c32.2,18.6,84.5,18.6,116.8,0
							C448.8,293.6,456.9,281.4,456.9,269.2z"/>
						<linearGradient id="SVGID_17_" gradientUnits="userSpaceOnUse" x1="374.2985" y1="-16.0771" x2="374.2985" y2="147.3782">
							<stop  offset="1.694780e-03" style="stop-color:#00D4C8"/>
							<stop  offset="1" style="stop-color:#00D2C7;stop-opacity:0"/>
						</linearGradient>
						<ellipse class="exp27" cx="374.3" cy="60.5" rx="82.6" ry="47.7"/>
					</g>
				</g>
				<path class="exp10" d="M304.1,193.8L304.1,193.8c-3.5-2-5.6-5.7-5.6-9.7v-75.9c0-1.7,1.8-2.7,3.3-1.9l0,0c3.6,2.1,5.8,5.9,5.8,10
					v75.6C307.5,193.5,305.6,194.6,304.1,193.8z"/>
				<path class="exp10" d="M304.1,227.9L304.1,227.9c-3.5-2-5.6-5.7-5.6-9.7v-10.8c0-1.7,1.8-2.7,3.3-1.9l0,0c3.6,2.1,5.8,5.9,5.8,10
					v10.4C307.5,227.7,305.6,228.8,304.1,227.9z"/>
			</g>
			<g>
				<path class="exp8" d="M584.7,415.3v-49.9H473v49.9l0,0c0,8.2,5.5,16.5,16.4,22.8c21.8,12.6,57.1,12.6,78.9,0
					C579.2,431.7,584.7,423.5,584.7,415.3z"/>
				<linearGradient id="SVGID_18_" gradientUnits="userSpaceOnUse" x1="520.5369" y1="406.3937" x2="604.4684" y2="406.3937">
					<stop  offset="0" style="stop-color:#FFFFFF;stop-opacity:0"/>
					<stop  offset="1" style="stop-color:#662D8D"/>
				</linearGradient>
				<path class="exp28" d="M584.7,415.3v-49.9H473v49.9l0,0c0,8.2,5.5,16.5,16.4,22.8c21.8,12.6,57.1,12.6,78.9,0
					C579.2,431.7,584.7,423.5,584.7,415.3z"/>
				<ellipse class="exp10" cx="528.9" cy="365.3" rx="55.8" ry="32.2"/>
				<g>
					<linearGradient id="SVGID_19_" gradientUnits="userSpaceOnUse" x1="528.8652" y1="307.2665" x2="528.8652" y2="417.7849">
						<stop  offset="1.694780e-03" style="stop-color:#00D4C8"/>
						<stop  offset="1" style="stop-color:#00D2C7;stop-opacity:0"/>
					</linearGradient>
					<ellipse class="exp29" cx="528.9" cy="359" rx="55.8" ry="32.2"/>
					<g>
						<path class="exp19" d="M568.9,269.2c0,2.1-1.7,3.7-3.7,3.7s-3.7-1.7-3.7-3.7s1.7-3.7,3.7-3.7S568.9,267.2,568.9,269.2z"/>
						<circle class="exp19" cx="561.5" cy="349.3" r="3.7"/>
						<path class="exp19" d="M501.4,320.7c0,2.1-1.7,3.7-3.7,3.7c-2.1,0-3.7-1.7-3.7-3.7s1.7-3.7,3.7-3.7
							C499.7,317,501.4,318.7,501.4,320.7z"/>
						<path class="exp19" d="M560.1,253.5c0,1.3-1.1,2.3-2.3,2.3s-2.3-1.1-2.3-2.3s1.1-2.3,2.3-2.3S560.1,252.2,560.1,253.5z"/>
						<path class="exp19" d="M549.7,359c0,1.3-1.1,2.3-2.3,2.3s-2.3-1.1-2.3-2.3s1.1-2.3,2.3-2.3S549.7,357.8,549.7,359z"/>
						<path class="exp19" d="M499.6,250.1c0,1.3-1.1,2.3-2.3,2.3c-1.3,0-2.3-1.1-2.3-2.3c0-1.3,1.1-2.3,2.3-2.3
							C498.6,247.8,499.6,248.8,499.6,250.1z"/>
						<path class="exp19" d="M577.5,319c0,1.3-1.1,2.3-2.3,2.3c-1.3,0-2.3-1.1-2.3-2.3s1.1-2.3,2.3-2.3
							C576.5,316.7,577.5,317.7,577.5,319z"/>
						<path class="exp19" d="M493.9,353.1c0,1.3-1.1,2.3-2.3,2.3c-1.3,0-2.3-1.1-2.3-2.3c0-1.3,1.1-2.3,2.3-2.3
							C492.8,350.7,493.9,351.8,493.9,353.1z"/>
						<g>
							<path class="exp30" d="M563.9,310c0,0.2,0,0.4,0,0.5c0,2.2-0.2,4.2-0.6,6.1c-0.2,1.1-0.5,2.2-0.8,3.2c-1.4,4.3-3.9,7.6-7,9.6
								l0,0l-0.3,0.2c-0.2,0.1-0.3,0.2-0.5,0.3l-8.6,5l-1.9-3.3c-3.4-0.5-7-1.7-10.8-3.9c-16.9-9.8-30.7-33.6-30.7-53.1
								c0-2,0.2-3.8,0.4-5.6c0.2-1.1,0.4-2.2,0.7-3.1c0.2-0.8,0.5-1.6,0.8-2.4l-2-3.5l8.7-5c0.3-0.2,0.6-0.3,0.9-0.5l0.5-0.3l0,0
								c3.5-1.7,7.8-2,12.6-0.8c1,0.3,2,0.6,3.1,1c1.6,0.6,3.3,1.4,5,2.4c0.1,0.1,0.3,0.2,0.4,0.2c0.8,0.4,1.5,0.9,2.3,1.4
								c1.5,1,2.9,2.1,4.3,3.3c0.6,0.5,1.3,1.1,1.9,1.7c1.3,1.1,2.5,2.4,3.6,3.7c0.5,0.6,1.1,1.2,1.6,1.8c1.1,1.3,2.1,2.6,3.1,3.9
								c0.5,0.6,0.9,1.3,1.4,2c0.9,1.4,1.9,2.8,2.7,4.2c0.4,0.7,0.8,1.4,1.2,2.1c0.8,1.5,1.6,3,2.3,4.5c0.3,0.7,0.7,1.4,1,2.2
								c0.7,1.6,1.3,3.1,1.8,4.7c0.3,0.8,0.5,1.6,0.8,2.3c0.5,1.7,0.9,3.4,1.3,5c0.2,0.8,0.3,1.7,0.5,2.5c0.3,1.8,0.5,3.6,0.6,5.4
								C563.9,308.6,563.9,309.3,563.9,310z"/>
							<g>
								<path class="exp31" d="M528.2,254.5L503,269.1l-2,1.2l-0.6-2.4l3.3-1.9l21.5-12.4C526.1,253.8,527.1,254.1,528.2,254.5z"/>
								<path class="exp31" d="M535.9,258.6l-30.5,17.6l-0.6-2.4l28.9-16.7C534.4,257.6,535.1,258.1,535.9,258.6z"/>
								<path class="exp31" d="M542.1,263.5l-32.4,18.7l-0.6-2.4l31.1-18C540.8,262.4,541.5,263,542.1,263.5z"/>
								<path class="exp31" d="M547.3,269l-33.2,19.2l-0.6-2.4l32.3-18.6C546.3,267.8,546.8,268.4,547.3,269z"/>
								<path class="exp31" d="M551.8,274.9l-33.4,19.3l-0.6-2.4l32.6-18.8C550.9,273.6,551.4,274.3,551.8,274.9z"/>
								<path class="exp31" d="M555.7,281.2l-32.8,19l-0.6-2.4l32.3-18.6C554.9,279.9,555.3,280.5,555.7,281.2z"/>
								<path class="exp31" d="M558.9,287.9l-31.7,18.3l-0.6-2.4l31.3-18.1C558.3,286.4,558.6,287.1,558.9,287.9z"/>
								<path class="exp31" d="M561.5,294.9l-29.9,17.2l-0.6-2.4l29.7-17.2C561,293.4,561.3,294.1,561.5,294.9z"/>
								<path class="exp31" d="M563.2,302.4L536,318.2l-0.6-2.4l27.4-15.8C563,300.8,563.1,301.6,563.2,302.4z"/>
								<path class="exp31" d="M563.9,310c0,0.2,0,0.4,0,0.5l-23.5,13.6l-0.6-2.4l24.1-13.9C563.9,308.6,563.9,309.3,563.9,310z"/>
								<path class="exp31" d="M563.3,316.7c-0.2,1.1-0.5,2.2-0.8,3.2l-17.7,10.2l-0.6-2.4L563.3,316.7z"/>
							</g>
							
								<ellipse transform="matrix(0.866 -0.5 0.5 0.866 -78.4032 302.0974)" class="exp32" cx="524.5" cy="297.3" rx="25" ry="43.4"/>
							<path class="exp30" d="M530.1,272.9c-1.1,0-2.1,0-3.2,0c1.2,1,2.3,2.1,3.4,3.2l1.9-1.1C531.5,274.3,530.8,273.6,530.1,272.9z
								 M503,269.1c0,0.1,0,0.1,0,0.2c0.2,0.1,0.5,0.1,0.7,0.2c0.3-0.5,0.5-0.9,0.8-1.3L503,269.1z M530.1,272.9c-1.1,0-2.1,0-3.2,0
								c1.2,1,2.3,2.1,3.4,3.2l1.9-1.1C531.5,274.3,530.8,273.6,530.1,272.9z M502.9,269.3c0.2,0.1,0.5,0.1,0.7,0.2
								c0.3-0.5,0.5-0.9,0.8-1.3l-1.5,0.9C503,269.1,503,269.2,502.9,269.3z M549.5,310.4c-0.1-0.8-0.2-1.7-0.4-2.5
								c-0.3-1.7-0.7-3.4-1.2-5.1c-0.2-0.8-0.5-1.6-0.7-2.3c-0.5-1.6-1.1-3.2-1.8-4.7c-0.3-0.7-0.6-1.5-1-2.2
								c-0.7-1.5-1.4-3-2.2-4.5c-0.4-0.7-0.8-1.4-1.2-2.1c-0.8-1.4-1.8-2.8-2.7-4.2c-0.4-0.7-0.9-1.3-1.4-1.9
								c-1-1.4-2.1-2.7-3.2-3.9c-0.5-0.6-1.1-1.2-1.6-1.8c-0.7-0.7-1.4-1.4-2.1-2.1c-0.5-0.5-1.1-1-1.7-1.5
								c-0.6-0.6-1.3-1.1-1.9-1.6c-1.5-1.2-3-2.2-4.6-3.1c0,0-0.1,0-0.1-0.1c-0.8-0.5-1.6-0.9-2.4-1.3c-2.3-1.1-4.4-1.8-6.5-2
								c-0.7-0.1-1.4-0.2-2.1-0.2c-1.1,0-2.1,0.1-3,0.4c-1.7,0.4-3,1.2-4.1,2.3l-0.3,0.3l0,0c-0.8,0.8-1.4,1.7-1.9,2.7
								c-0.2,0.4-0.4,0.8-0.6,1.3v0c-1.4,3.4-1.6,7.2-1.6,9.6c0,16.8,11.7,37.8,26.1,47.2c0.6,0.4,1.3,0.8,1.9,1.2
								c3.9,2.3,7.7,3.5,11,3.5c1.2,0,2.2-0.1,3.2-0.4c1.3-0.3,2.3-0.9,3.2-1.6c0.5-0.3,0.9-0.7,1.3-1.2c0.7-0.8,1.3-1.7,1.8-2.6v0
								c1.1-2.2,1.6-4.7,1.9-6.9c0.1-1,0.2-2,0.2-2.9c0-0.3,0-0.6,0-0.9C549.8,313.5,549.7,312,549.5,310.4z M547.2,320.2
								c-0.5,2.9-1.7,5.9-4.1,7.7c-1.3,0.9-2.9,1.5-4.9,1.5c-0.7,0-1.4-0.1-2.2-0.2h0c-2.1-0.3-4.3-1.2-6.6-2.4h0
								c-0.4-0.2-0.7-0.4-1.1-0.6c-14.6-8.4-26.9-29.8-26.9-46.6c0-2,0.2-5.3,1.3-8.3c0.3-0.7,0.6-1.3,0.9-1.9
								c0.3-0.5,0.5-0.9,0.8-1.3l0,0c1.1-1.4,2.7-2.4,4.8-2.8h0c0.5-0.1,1-0.1,1.5-0.1c1.9,0,4,0.5,6.3,1.4c0.9,0.3,1.7,0.8,2.6,1.2
								c0.3,0.2,0.7,0.4,1,0.6c1.3,0.7,2.5,1.5,3.7,2.5c0.7,0.5,1.3,1,2,1.6c0.2,0.1,0.3,0.2,0.4,0.4h0c1.2,1,2.3,2.1,3.4,3.2
								c0.6,0.6,1.1,1.2,1.7,1.8c1.1,1.2,2.2,2.6,3.2,3.9c0.5,0.6,0.9,1.3,1.4,1.9c1,1.4,1.9,2.8,2.7,4.2c0.4,0.7,0.8,1.4,1.2,2.1
								c0.8,1.5,1.5,3,2.2,4.5c0.3,0.7,0.7,1.5,1,2.2c0.7,1.6,1.2,3.2,1.7,4.8v0c0.3,0.8,0.5,1.6,0.7,2.3c0.5,1.7,0.8,3.4,1.1,5.1
								c0.1,0.9,0.3,1.7,0.3,2.6c0.1,1.2,0.2,2.4,0.2,3.5c0,0.6,0,1.4-0.1,2.2C547.5,318.2,547.4,319.2,547.2,320.2z M503,269.1
								c0,0.1,0,0.1,0,0.2c0.2,0.1,0.5,0.1,0.7,0.2c0.3-0.5,0.5-0.9,0.8-1.3L503,269.1z M530.1,272.9c-1.1,0-2.1,0-3.2,0
								c1.2,1,2.3,2.1,3.4,3.2l1.9-1.1C531.5,274.3,530.8,273.6,530.1,272.9z"/>
							<g>
								<path class="exp30" d="M533.1,302.8c-0.3-0.7-0.7-1.4-1.1-2.1c-0.9-1.4-2-2.7-3.3-3.9c-0.6-0.6-1.3-1.1-1.9-1.6
									c-0.5-0.4-1-0.8-1.5-1.1c-1.2-0.8-2.1-1.5-2.8-2.3c-0.5-0.6-0.8-1.2-0.8-2c0-0.1,0-0.3,0-0.3c0.1-0.4,0.5-0.6,0.9-0.5
									c0.5,0,1.2,0.3,1.9,0.7c0.3,0.1,0.5,0.3,0.8,0.5c1.4,0.9,2.7,2,3.8,3.6c0.1,0.2,0.3,0.3,0.4,0.5l2.4-2.1l0,0h0l0.6-0.5
									c-1-1.5-2-2.7-3.1-3.8c-0.6-0.6-1.2-1.1-1.9-1.7c-0.2-0.2-0.4-0.3-0.6-0.5v-3.1l-1.6-0.9l-2.4-1.4l-1.1-0.7v3.2
									c-0.8-0.3-1.6-0.5-2.3-0.5h0c-1.7-0.1-3,0.5-3.6,2.1c-0.2,0.6-0.3,1.2-0.3,2.1c0,0.3,0,0.6,0,0.9c0.2,2.7,1.2,4.9,2.7,6.9
									l0,0c0,0,0,0.1,0,0.1c1,1.3,2.3,2.5,3.7,3.6c0.7,0.5,1.4,1,2.1,1.5c0,0,0,0,0.1,0.1c2,1.3,3.1,2.6,3.4,3.7
									c0.1,0.2,0.1,0.4,0.1,0.6c0,0.8-0.4,1.1-1.1,1.1c-0.6,0-1.3-0.3-2.2-0.8c-1.8-1-4.1-2.8-6.3-6.4l-3.3,2.5
									c2.2,4,4.4,6.4,6.9,8.2v3.3l5.1,3v-3.4c1.6,0.6,3.2,0.8,4.4,0.5c1.3-0.4,2.3-1.5,2.4-3.5v0c0-0.3,0-0.5,0-0.8
									C534,305.7,533.6,304.2,533.1,302.8z"/>
							</g>
						</g>
					</g>
					<g>
						<linearGradient id="SVGID_20_" gradientUnits="userSpaceOnUse" x1="438.2951" y1="315.9876" x2="537.2717" y2="315.9876">
							<stop  offset="1.694780e-03" style="stop-color:#00D4C8"/>
							<stop  offset="1" style="stop-color:#00D2C7;stop-opacity:0"/>
						</linearGradient>
						<path class="exp33" d="M584.7,359V240.7c0,8.2-5.5,16.5-16.4,22.8c-21.8,12.6-57.1,12.6-78.9,0c-10.9-6.3-16.4-14.5-16.4-22.8
							V359l0,0c0,8.2,5.5,16.5,16.4,22.8c21.8,12.6,57.1,12.6,78.9,0C579.2,375.5,584.7,367.3,584.7,359z"/>
						<linearGradient id="SVGID_21_" gradientUnits="userSpaceOnUse" x1="607.5313" y1="315.9876" x2="538.0569" y2="315.9876">
							<stop  offset="1.694780e-03" style="stop-color:#00D4C8"/>
							<stop  offset="1" style="stop-color:#00D2C7;stop-opacity:0"/>
						</linearGradient>
						<path class="exp34" d="M584.7,359V240.7c0,8.2-5.5,16.5-16.4,22.8c-21.8,12.6-57.1,12.6-78.9,0c-10.9-6.3-16.4-14.5-16.4-22.8
							V359l0,0c0,8.2,5.5,16.5,16.4,22.8c21.8,12.6,57.1,12.6,78.9,0C579.2,375.5,584.7,367.3,584.7,359z"/>
						<linearGradient id="SVGID_22_" gradientUnits="userSpaceOnUse" x1="528.8652" y1="188.9173" x2="528.8652" y2="299.4357">
							<stop  offset="1.694780e-03" style="stop-color:#00D4C8"/>
							<stop  offset="1" style="stop-color:#00D2C7;stop-opacity:0"/>
						</linearGradient>
						<ellipse class="exp35" cx="528.9" cy="240.7" rx="55.8" ry="32.2"/>
					</g>
				</g>
				<path class="exp10" d="M481.4,308L481.4,308c-2.4-1.4-3.8-3.9-3.8-6.6v-34.2c0-1.1,1.2-1.8,2.2-1.3l0,0c2.4,1.4,3.9,4,3.9,6.8v34
					C483.7,307.9,482.4,308.6,481.4,308z"/>
				<path class="exp10" d="M481.4,331.1L481.4,331.1c-2.4-1.4-3.8-3.9-3.8-6.6v-7.3c0-1.1,1.2-1.8,2.2-1.3l0,0c2.4,1.4,3.9,4,3.9,6.8
					v7.1C483.7,331,482.4,331.7,481.4,331.1z"/>
			</g>
			<g>
				<path class="exp8" d="M275.4,259.2v-49.9H163.7v49.9l0,0c0,8.2,5.5,16.5,16.4,22.8c21.8,12.6,57.1,12.6,78.9,0
					C269.9,275.7,275.4,267.4,275.4,259.2z"/>
				<linearGradient id="SVGID_23_" gradientUnits="userSpaceOnUse" x1="211.2457" y1="250.3144" x2="295.1771" y2="250.3144">
					<stop  offset="0" style="stop-color:#FFFFFF;stop-opacity:0"/>
					<stop  offset="1" style="stop-color:#662D8D"/>
				</linearGradient>
				<path class="exp36" d="M275.4,259.2v-49.9H163.7v49.9l0,0c0,8.2,5.5,16.5,16.4,22.8c21.8,12.6,57.1,12.6,78.9,0
					C269.9,275.7,275.4,267.4,275.4,259.2z"/>
				<ellipse class="exp10" cx="219.6" cy="209.2" rx="55.8" ry="32.2"/>
				<g>
					<linearGradient id="SVGID_24_" gradientUnits="userSpaceOnUse" x1="219.5739" y1="151.1871" x2="219.5739" y2="261.7057">
						<stop  offset="1.694780e-03" style="stop-color:#00D4C8"/>
						<stop  offset="1" style="stop-color:#00D2C7;stop-opacity:0"/>
					</linearGradient>
					<ellipse class="exp37" cx="219.6" cy="203" rx="55.8" ry="32.2"/>
					<g>
						<circle class="exp38" cx="255.9" cy="113.2" r="3.7"/>
						<circle class="exp38" cx="252.2" cy="193.3" r="3.7"/>
						<path class="exp38" d="M192.1,164.6c0,2.1-1.7,3.7-3.7,3.7c-2.1,0-3.7-1.7-3.7-3.7c0-2.1,1.7-3.7,3.7-3.7
							C190.4,160.9,192.1,162.6,192.1,164.6z"/>
						<path class="exp38" d="M250.8,97.4c0,1.3-1.1,2.3-2.3,2.3c-1.3,0-2.3-1.1-2.3-2.3s1.1-2.3,2.3-2.3
							C249.8,95.1,250.8,96.1,250.8,97.4z"/>
						<path class="exp38" d="M240.4,203c0,1.3-1.1,2.3-2.3,2.3c-1.3,0-2.3-1.1-2.3-2.3c0-1.3,1.1-2.3,2.3-2.3
							C239.3,200.6,240.4,201.7,240.4,203z"/>
						<path class="exp38" d="M190.3,94.1c0,1.3-1.1,2.3-2.3,2.3c-1.3,0-2.3-1.1-2.3-2.3s1.1-2.3,2.3-2.3
							C189.3,91.7,190.3,92.8,190.3,94.1z"/>
						<path class="exp38" d="M268.3,163c0,1.3-1.1,2.3-2.3,2.3s-2.3-1.1-2.3-2.3c0-1.3,1.1-2.3,2.3-2.3S268.3,161.7,268.3,163z"/>
						<path class="exp38" d="M184.6,197c0,1.3-1.1,2.3-2.3,2.3c-1.3,0-2.3-1.1-2.3-2.3c0-1.3,1.1-2.3,2.3-2.3
							C183.5,194.6,184.6,195.7,184.6,197z"/>
						<g>
							<path class="exp38" d="M254.6,154c0,0.2,0,0.4,0,0.5c0,2.2-0.2,4.2-0.6,6.1c-0.2,1.1-0.5,2.2-0.8,3.2c-1.4,4.3-3.9,7.6-7,9.6
								l0,0l-0.3,0.2c-0.2,0.1-0.3,0.2-0.5,0.3l-8.6,5l-1.9-3.3c-3.4-0.5-7-1.7-10.8-3.9c-16.9-9.8-30.7-33.6-30.7-53.1
								c0-2,0.2-3.8,0.4-5.6c0.2-1.1,0.4-2.2,0.7-3.1c0.2-0.8,0.5-1.6,0.8-2.4l-2-3.5l8.7-5c0.3-0.2,0.6-0.3,0.9-0.5l0.5-0.3l0,0
								c3.5-1.7,7.8-2,12.6-0.8c1,0.3,2,0.6,3.1,1c1.6,0.6,3.3,1.4,5,2.4c0.1,0.1,0.3,0.2,0.4,0.2c0.8,0.4,1.5,0.9,2.3,1.4
								c1.5,1,2.9,2.1,4.3,3.3c0.6,0.5,1.3,1.1,1.9,1.7c1.3,1.1,2.5,2.4,3.6,3.7c0.5,0.6,1.1,1.2,1.6,1.8c1.1,1.3,2.1,2.6,3.1,3.9
								c0.5,0.6,0.9,1.3,1.4,2c0.9,1.4,1.9,2.8,2.7,4.2c0.4,0.7,0.8,1.4,1.2,2.1c0.8,1.5,1.6,3,2.3,4.5c0.3,0.7,0.7,1.4,1,2.2
								c0.7,1.6,1.3,3.1,1.8,4.7c0.3,0.8,0.5,1.6,0.8,2.3c0.5,1.7,0.9,3.4,1.3,5c0.2,0.8,0.3,1.7,0.5,2.5c0.3,1.8,0.5,3.6,0.6,5.4
								C254.6,152.5,254.6,153.2,254.6,154z"/>
							<linearGradient id="SVGID_25_" gradientUnits="userSpaceOnUse" x1="215.7263" y1="120.4676" x2="248.4271" y2="183.424">
								<stop  offset="0" style="stop-color:#FFFFFF;stop-opacity:0"/>
								<stop  offset="1" style="stop-color:#662D8D"/>
							</linearGradient>
							<path class="exp39" d="M254.6,154c0,0.2,0,0.4,0,0.5c0,2.2-0.2,4.2-0.6,6.1c-0.2,1.1-0.5,2.2-0.8,3.2c-1.4,4.3-3.9,7.6-7,9.6
								l0,0l-0.3,0.2c-0.2,0.1-0.3,0.2-0.5,0.3l-8.6,5l-1.9-3.3c-3.4-0.5-7-1.7-10.8-3.9c-16.9-9.8-30.7-33.6-30.7-53.1
								c0-2,0.2-3.8,0.4-5.6c0.2-1.1,0.4-2.2,0.7-3.1c0.2-0.8,0.5-1.6,0.8-2.4l-2-3.5l8.7-5c0.3-0.2,0.6-0.3,0.9-0.5l0.5-0.3l0,0
								c3.5-1.7,7.8-2,12.6-0.8c1,0.3,2,0.6,3.1,1c1.6,0.6,3.3,1.4,5,2.4c0.1,0.1,0.3,0.2,0.4,0.2c0.8,0.4,1.5,0.9,2.3,1.4
								c1.5,1,2.9,2.1,4.3,3.3c0.6,0.5,1.3,1.1,1.9,1.7c1.3,1.1,2.5,2.4,3.6,3.7c0.5,0.6,1.1,1.2,1.6,1.8c1.1,1.3,2.1,2.6,3.1,3.9
								c0.5,0.6,0.9,1.3,1.4,2c0.9,1.4,1.9,2.8,2.7,4.2c0.4,0.7,0.8,1.4,1.2,2.1c0.8,1.5,1.6,3,2.3,4.5c0.3,0.7,0.7,1.4,1,2.2
								c0.7,1.6,1.3,3.1,1.8,4.7c0.3,0.8,0.5,1.6,0.8,2.3c0.5,1.7,0.9,3.4,1.3,5c0.2,0.8,0.3,1.7,0.5,2.5c0.3,1.8,0.5,3.6,0.6,5.4
								C254.6,152.5,254.6,153.2,254.6,154z"/>
							
								<ellipse transform="matrix(0.866 -0.5 0.5 0.866 -41.8009 126.5387)" class="exp40" cx="215.2" cy="141.3" rx="25" ry="43.4"/>
							
								<ellipse transform="matrix(0.866 -0.5 0.5 0.866 -41.8009 126.539)" class="exp41" cx="215.2" cy="141.3" rx="19.7" ry="34.2"/>
							
								<ellipse transform="matrix(0.866 -0.5 0.5 0.866 -41.8009 126.5387)" class="exp41" cx="215.2" cy="141.3" rx="13.8" ry="23.9"/>
							<path class="exp41" d="M225.2,147c0,6.4-4.5,8.9-10,5.8c-5.5-3.2-10-10.9-10-17.3s4.5-8.9,10-5.8
								C220.7,132.9,225.2,140.7,225.2,147z"/>
							<path class="exp10" d="M219.1,143.5c0,2.5-1.8,3.5-3.9,2.3c-2.2-1.3-3.9-4.3-3.9-6.8c0-2.5,1.8-3.5,3.9-2.3
								C217.4,138,219.1,141,219.1,143.5z"/>
						</g>
					</g>
					<g>
						<linearGradient id="SVGID_26_" gradientUnits="userSpaceOnUse" x1="129.004" y1="159.9083" x2="227.9805" y2="159.9083">
							<stop  offset="1.694780e-03" style="stop-color:#00D4C8"/>
							<stop  offset="1" style="stop-color:#00D2C7;stop-opacity:0"/>
						</linearGradient>
						<path class="exp42" d="M275.4,203V84.6c0,8.2-5.5,16.5-16.4,22.8c-21.8,12.6-57.1,12.6-78.9,0c-10.9-6.3-16.4-14.5-16.4-22.8
							V203l0,0c0,8.2,5.5,16.5,16.4,22.8c21.8,12.6,57.1,12.6,78.9,0C269.9,219.5,275.4,211.2,275.4,203z"/>
						<linearGradient id="SVGID_27_" gradientUnits="userSpaceOnUse" x1="298.24" y1="159.9083" x2="228.7656" y2="159.9083">
							<stop  offset="1.694780e-03" style="stop-color:#00D4C8"/>
							<stop  offset="1" style="stop-color:#00D2C7;stop-opacity:0"/>
						</linearGradient>
						<path class="exp43" d="M275.4,203V84.6c0,8.2-5.5,16.5-16.4,22.8c-21.8,12.6-57.1,12.6-78.9,0c-10.9-6.3-16.4-14.5-16.4-22.8
							V203l0,0c0,8.2,5.5,16.5,16.4,22.8c21.8,12.6,57.1,12.6,78.9,0C269.9,219.5,275.4,211.2,275.4,203z"/>
						<linearGradient id="SVGID_28_" gradientUnits="userSpaceOnUse" x1="219.5739" y1="32.838" x2="219.5739" y2="143.3564">
							<stop  offset="1.694780e-03" style="stop-color:#00D4C8"/>
							<stop  offset="1" style="stop-color:#00D2C7;stop-opacity:0"/>
						</linearGradient>
						<ellipse class="exp44" cx="219.6" cy="84.6" rx="55.8" ry="32.2"/>
					</g>
				</g>
				<path class="exp10" d="M172.1,151.9L172.1,151.9c-2.4-1.4-3.8-3.9-3.8-6.6v-34.2c0-1.1,1.2-1.8,2.2-1.3l0,0
					c2.4,1.4,3.9,4,3.9,6.8v34C174.4,151.8,173.1,152.5,172.1,151.9z"/>
				<path class="exp10" d="M172.1,175L172.1,175c-2.4-1.4-3.8-3.9-3.8-6.6v-7.3c0-1.1,1.2-1.8,2.2-1.3l0,0c2.4,1.4,3.9,4,3.9,6.8v7.1
					C174.4,174.9,173.1,175.6,172.1,175z"/>
			</g>
			<g>
				<path class="exp45" d="M389.9,344.3c0,0-9.2,9.8-9.8,19.5l1.8,3.8l3.7-2.7c0,0,2.6-12.8,7.4-16.6L389.9,344.3z"/>
				<path class="exp46" d="M411.5,459.1c0,0,0.6,6.1-2.3,5.7c-3.5-0.4-14.2-7.6-11.8-9.8c2.4-2.3,11.3,1.8,11.3,1.8L411.5,459.1z"/>
				<path class="exp46" d="M392.5,468.1c0,0,0.6,6.1-2.3,5.7c-3.5-0.4-14.2-7.6-11.8-9.8c2.4-2.3,11.3,1.8,11.3,1.8L392.5,468.1z"/>
				<rect x="395.2" y="316.9" class="exp47" width="6.4" height="9"/>
				<path class="exp45" d="M388.4,365.3c0,0-10.2,23.3-2.5,103.4c0,0.4,0.3,0.8,0.6,1c1.3,0.8,4.7,2.1,6.5-2.4c0-0.1,0.1-0.3,0.1-0.4
					l6.7-83.9c0.1-1.4,0.8-1.4,0.9-0.1l4.1,76.7c0,0.6,0.4,1.1,0.9,1.3c1.8,0.7,5.7,1.5,6.4-4.2c0,0,6.9-82.9-1.2-94.2L388.4,365.3z
					"/>
				<path class="exp46" d="M410.9,360c-0.2,0.3-0.4,0.7-0.7,1c-2.3,2.4-8.6,6.7-21.1,2.2c-0.3-0.1-0.5-0.3-0.7-0.4v2.6
					c0.2,0.2,0.5,0.3,0.7,0.4c12.5,4.5,18.8,0.2,21.1-2.2c0.3-0.3,0.5-0.6,0.7-1V360z"/>
				<path class="exp10" d="M436.3,283.9c0,0,0-5.4,0.7-5.5c0.5-0.1,0.5,1.7,0.5,1.7s0.6-4,1.5-3.8c0.3,0.1-0.1,2.6-0.1,2.6
					s0.4-1.4,2.6,0c0.7,0.4,0.5,1.8-2.1,6L436.3,283.9z"/>
				<path class="exp48" d="M409.6,320.3c0,0,19-1.6,26.5-36.8c0,0,2-0.4,3.6,1.3c0,0-1.1,42.3-27.4,50.4L409.6,320.3z"/>
				<path class="exp49" d="M395.2,322.8l6.4-1.4l10-1.3c2.5-0.3,4.2,3.2,4.4,7c0.3,7.2-4.5,31.8-4.5,31.8c-0.1,1-0.5,1.9-1.2,2.6
					c-2.3,2.4-8.6,6.7-21.1,2.2c-0.8-0.3-1.4-1-1.5-1.8l-4.7-29.1c-0.2-1.5,0.4-3,1.7-3.9L395.2,322.8z"/>
				<path class="exp10" d="M387.3,305.6c0,0,0.8,8.7,4.4,13.1c3.6,4.4,10.5-2.9,11.6-5c1-2.1,2.7-15.6-8.1-15.6
					C388.1,298.1,386.9,302.5,387.3,305.6z"/>
				<path class="exp45" d="M397.7,311c0,0-3.6-2.6-5-6.9c0,0-0.8-0.5-5.2,3.2c0,0-5,0-2.7-5.3c2.3-5.2,11.9-11.9,16.5-6.6
					c0,0,8.8-1.5,7.1,9.9c-2.2,15-9.2,12.5-11,9.1C395.7,311,397.7,311,397.7,311z"/>
				<path class="exp10" d="M395.4,309.2c0,0,1.5-2.9,2.6-1.2c1.2,1.7-0.2,5.1-2.9,5.6L395.4,309.2z"/>
				<polygon class="exp45" points="355.8,320.2 369.3,333.7 382.8,325.6 369.3,311.8 				"/>
				<polyline class="exp50" points="368.1,327.4 368.1,324.4 370.9,324.4 370.9,318.1 				"/>
				<polyline class="exp50" points="368.3,319.8 370.8,317.3 373.6,320.1 				"/>
				<path class="exp10" d="M361.6,326c0-0.1,1.1-1.2,1.9-2.1c0.2-0.2,0.7,0,0.6,0.3l-0.6,2c0,0,2.9-0.8,1.3,3.9L362,331L361.6,326z"
					/>
				<path class="exp48" d="M365,330.1c0,0,14.8,26.6,6,28.2c-8.8,1.7-9.2-27.4-9.2-27.4S362.6,329.8,365,330.1z"/>
				<path class="exp48" d="M384.7,329c0,0-4,2-9.5,9.8c-7.5,10.7-10.9,17-4,19.4c1.8,0.6,13.9-12.2,13.9-12.2S390.1,335.5,384.7,329z
					"/>
				<path class="exp48" d="M393.9,323.6l1.3-2.2c0,0,2.2-1.3,6.4-1.4l1.5,1.3C403,321.2,402.7,322.7,393.9,323.6z"/>
			</g>
			<g>
				<polygon class="exp8" points="264.2,297.3 216.2,405.7 211.8,403.1 211.8,340.1 				"/>
				<polygon class="exp8" points="268.6,299.9 268.6,375.4 216.2,405.7 216.2,342.7 				"/>
				<linearGradient id="SVGID_29_" gradientUnits="userSpaceOnUse" x1="216.7996" y1="301.6418" x2="276.0887" y2="420.2198">
					<stop  offset="0" style="stop-color:#FFFFFF;stop-opacity:0"/>
					<stop  offset="1" style="stop-color:#662D8D"/>
				</linearGradient>
				<polygon class="exp51" points="268.6,299.9 268.6,375.4 216.2,405.7 216.2,342.7 				"/>
			</g>
			<g>
				<polygon class="exp8" points="348.6,346 300.6,454.3 296.2,451.7 296.2,388.7 				"/>
				<polygon class="exp8" points="353,348.5 353,424.1 300.6,454.3 300.6,391.3 				"/>
				<linearGradient id="SVGID_30_" gradientUnits="userSpaceOnUse" x1="257.1642" y1="401.426" x2="418.281" y2="401.426">
					<stop  offset="0" style="stop-color:#FFFFFF;stop-opacity:0"/>
					<stop  offset="1" style="stop-color:#662D8D"/>
				</linearGradient>
				<polygon class="exp52" points="353,348.5 353,424.1 300.6,454.3 300.6,391.3 				"/>
			</g>
			<polygon class="exp8" points="300.6,395.6 211.8,344.3 353,348.5 353,352.8 			"/>
			<linearGradient id="SVGID_31_" gradientUnits="userSpaceOnUse" x1="257.1641" y1="369.9344" x2="418.2801" y2="369.9344">
				<stop  offset="0" style="stop-color:#FFFFFF;stop-opacity:0"/>
				<stop  offset="1" style="stop-color:#662D8D"/>
			</linearGradient>
			<polygon class="exp53" points="300.6,395.6 211.8,344.3 353,348.5 353,352.8 			"/>
			<polygon class="exp10" points="300.6,391.3 211.8,340.1 264.2,297.3 353,348.5 			"/>
			<polygon class="exp45" points="299.3,384.3 222.1,339.7 265.4,304.3 342.6,348.9 			"/>
			<linearGradient id="SVGID_32_" gradientUnits="userSpaceOnUse" x1="276.2842" y1="308.1349" x2="272.1403" y2="348.9818">
				<stop  offset="3.946110e-03" style="stop-color:#FFFFFF;stop-opacity:0"/>
				<stop  offset="1" style="stop-color:#FDC870"/>
			</linearGradient>
			<path class="exp54" d="M279.8,345.2l-29.4-17c-0.7-0.4-0.8-1.3-0.1-1.8l15.5-12.7c0.8-0.7,2-0.8,2.9-0.2l29,16.8
				c0.9,0.5,1,1.7,0.2,2.4L282.7,345C281.9,345.7,280.8,345.8,279.8,345.2z"/>
			<linearGradient id="SVGID_33_" gradientUnits="userSpaceOnUse" x1="262.3127" y1="333.1768" x2="251.9041" y2="352.9172">
				<stop  offset="0" style="stop-color:#BA68C8;stop-opacity:0"/>
				<stop  offset="1" style="stop-color:#BA68C8"/>
			</linearGradient>
			<path class="exp55" d="M266.6,355.8l-29.4-17c-0.7-0.4-0.8-1.3-0.1-1.8l7.7-6.1c0.8-0.7,2-0.8,2.9-0.2l29,16.8
				c0.9,0.5,1,1.7,0.2,2.4l-7.3,5.8C268.7,356.2,267.6,356.3,266.6,355.8z"/>
			<g>
				<linearGradient id="SVGID_34_" gradientUnits="userSpaceOnUse" x1="286.7522" y1="348.534" x2="277.0661" y2="366.9042">
					<stop  offset="1.694780e-03" style="stop-color:#00D4C8"/>
					<stop  offset="1" style="stop-color:#00D2C7;stop-opacity:0"/>
				</linearGradient>
				<path class="exp56" d="M281.5,364.7l-9.6-5.5c-0.7-0.4-0.8-1.3-0.1-1.8l7.7-6.1c0.8-0.7,2-0.8,2.9-0.2l9.2,5.3
					c0.9,0.5,1,1.7,0.2,2.4l-7.3,5.8C283.6,365.1,282.4,365.2,281.5,364.7z"/>
				<linearGradient id="SVGID_35_" gradientUnits="userSpaceOnUse" x1="302.035" y1="348.1588" x2="292.6678" y2="378.6022">
					<stop  offset="1.694780e-03" style="stop-color:#EF5350"/>
					<stop  offset="1" style="stop-color:#EF5350;stop-opacity:0"/>
				</linearGradient>
				<path class="exp57" d="M296.5,373.2l-10.2-6.1c-0.7-0.4-0.8-1.3-0.1-1.8l7.7-6.1c0.8-0.7,2-0.8,2.9-0.2l9.8,5.8
					c0.9,0.5,1,1.7,0.2,2.4l-7.3,5.8C298.6,373.6,297.5,373.7,296.5,373.2z"/>
			</g>
			<polygon class="exp8" points="300.6,395.6 300.6,391.3 211.8,340.1 211.8,344.3 			"/>
			<path class="exp58" d="M256.2,327.3c0.1-0.2,14.3-1.1,14.3-1.1l2.8,5h17.1l-3.7-1.8"/>
			<line class="exp58" x1="290.3" y1="331.1" x2="290.3" y2="334.1"/>
			<ellipse class="exp40" cx="306.2" cy="337" rx="1.8" ry="1"/>
			<ellipse class="exp59" cx="311.4" cy="339.9" rx="1.8" ry="1"/>
			<path class="exp40" d="M317.8,343.6c-0.7,0.4-1.8,0.4-2.5,0c-0.7-0.4-0.7-1.1,0-1.5c0.7-0.4,1.8-0.4,2.5,0
				C318.5,342.6,318.5,343.2,317.8,343.6z"/>
			<path class="exp40" d="M322.9,346.6c-0.7,0.4-1.8,0.4-2.5,0c-0.7-0.4-0.7-1.1,0-1.5c0.7-0.4,1.8-0.4,2.5,0
				C323.6,345.5,323.6,346.2,322.9,346.6z"/>
			<path class="exp40" d="M328.1,349.5c-0.7,0.4-1.8,0.4-2.5,0c-0.7-0.4-0.7-1.1,0-1.5c0.7-0.4,1.8-0.4,2.5,0
				C328.8,348.4,328.8,349.1,328.1,349.5z"/>
			<path class="exp40" d="M303.2,341c-0.7,0.4-1.8,0.4-2.5,0c-0.7-0.4-0.7-1.1,0-1.5c0.7-0.4,1.8-0.4,2.5,0
				C303.9,339.9,303.9,340.6,303.2,341z"/>
			<path class="exp40" d="M308.4,343.9c-0.7,0.4-1.8,0.4-2.5,0c-0.7-0.4-0.7-1.1,0-1.5c0.7-0.4,1.8-0.4,2.5,0
				C309.1,342.8,309.1,343.5,308.4,343.9z"/>
			<path class="exp40" d="M313.5,346.8c-0.7,0.4-1.8,0.4-2.5,0c-0.7-0.4-0.7-1.1,0-1.5c0.7-0.4,1.8-0.4,2.5,0
				C314.2,345.8,314.2,346.4,313.5,346.8z"/>
			<path class="exp59" d="M318.7,349.8c-0.7,0.4-1.8,0.4-2.5,0c-0.7-0.4-0.7-1.1,0-1.5c0.7-0.4,1.8-0.4,2.5,0
				C319.4,348.7,319.4,349.4,318.7,349.8z"/>
			<path class="exp59" d="M323.9,352.7c-0.7,0.4-1.8,0.4-2.5,0c-0.7-0.4-0.7-1.1,0-1.5c0.7-0.4,1.8-0.4,2.5,0
				C324.6,351.7,324.6,352.3,323.9,352.7z"/>
			<path class="exp59" d="M299,344.2c-0.7,0.4-1.8,0.4-2.5,0c-0.7-0.4-0.7-1.1,0-1.5c0.7-0.4,1.8-0.4,2.5,0
				C299.7,343.1,299.7,343.8,299,344.2z"/>
			<path class="exp40" d="M304.1,347.1c-0.7,0.4-1.8,0.4-2.5,0c-0.7-0.4-0.7-1.1,0-1.5c0.7-0.4,1.8-0.4,2.5,0
				C304.8,346.1,304.8,346.7,304.1,347.1z"/>
			<ellipse class="exp59" cx="308" cy="349.3" rx="1.8" ry="1"/>
			<path class="exp40" d="M314.5,353c-0.7,0.4-1.8,0.4-2.5,0c-0.7-0.4-0.7-1.1,0-1.5c0.7-0.4,1.8-0.4,2.5,0
				C315.2,352,315.2,352.6,314.5,353z"/>
			<path class="exp40" d="M319.6,355.9c-0.7,0.4-1.8,0.4-2.5,0c-0.7-0.4-0.7-1.1,0-1.5c0.7-0.4,1.8-0.4,2.5,0
				C320.3,354.9,320.3,355.5,319.6,355.9z"/>
			<path class="exp40" d="M294.7,347.4c-0.7,0.4-1.8,0.4-2.5,0c-0.7-0.4-0.7-1.1,0-1.5c0.7-0.4,1.8-0.4,2.5,0
				C295.4,346.4,295.4,347,294.7,347.4z"/>
			<path class="exp40" d="M299.9,350.3c-0.7,0.4-1.8,0.4-2.5,0c-0.7-0.4-0.7-1.1,0-1.5c0.7-0.4,1.8-0.4,2.5,0
				C300.6,349.3,300.6,349.9,299.9,350.3z"/>
			<path class="exp40" d="M305.1,353.3c-0.7,0.4-1.8,0.4-2.5,0c-0.7-0.4-0.7-1.1,0-1.5c0.7-0.4,1.8-0.4,2.5,0
				C305.8,352.2,305.8,352.9,305.1,353.3z"/>
			<path class="exp40" d="M310.2,356.2c-0.7,0.4-1.8,0.4-2.5,0c-0.7-0.4-0.7-1.1,0-1.5c0.7-0.4,1.8-0.4,2.5,0
				C310.9,355.2,310.9,355.8,310.2,356.2z"/>
			<path class="exp59" d="M315.4,359.2c-0.7,0.4-1.8,0.4-2.5,0c-0.7-0.4-0.7-1.1,0-1.5c0.7-0.4,1.8-0.4,2.5,0
				C316.1,358.1,316.1,358.8,315.4,359.2z"/>
			<ellipse class="exp59" cx="289.2" cy="349.9" rx="1.8" ry="1"/>
			<ellipse class="exp40" cx="294.4" cy="352.8" rx="1.8" ry="1"/>
			<path class="exp59" d="M300.8,356.5c-0.7,0.4-1.8,0.4-2.5,0c-0.7-0.4-0.7-1.1,0-1.5c0.7-0.4,1.8-0.4,2.5,0
				C301.5,355.5,301.5,356.1,300.8,356.5z"/>
			<ellipse class="exp40" cx="304.7" cy="358.7" rx="1.8" ry="1"/>
			<path class="exp59" d="M311.1,362.4c-0.7,0.4-1.8,0.4-2.5,0c-0.7-0.4-0.7-1.1,0-1.5c0.7-0.4,1.8-0.4,2.5,0
				C311.8,361.3,311.8,362,311.1,362.4z"/>
			<g>
				<line class="exp60" x1="245.9" y1="333.7" x2="272" y2="349"/>
				<line class="exp60" x1="243.9" y1="335.2" x2="270.1" y2="350.5"/>
				<line class="exp60" x1="242" y1="336.7" x2="268.2" y2="352"/>
			</g>
			<g>
				<path class="exp45" d="M232.4,335.2c0,0,9.7,10.3,10.4,20.6l-1.9,4l-3.9-2.9c0,0-2.8-13.5-7.8-17.6L232.4,335.2z"/>
				<path class="exp46" d="M209.6,456.4c0,0-0.7,6.4,2.5,6.1c3.6-0.4,14.9-8,12.4-10.4c-2.5-2.4-11.9,1.9-11.9,1.9L209.6,456.4z"/>
				<path class="exp46" d="M229.7,465.9c0,0-0.7,6.4,2.5,6.1c3.6-0.4,14.9-8,12.4-10.4c-2.5-2.4-11.9,1.9-11.9,1.9L229.7,465.9z"/>
				
					<rect x="220.1" y="306.3" transform="matrix(-1 -1.224647e-16 1.224647e-16 -1 446.9539 622.1647)" class="exp10" width="6.7" height="9.5"/>
				<path class="exp45" d="M234,357.4c0,0,10.8,24.6,2.7,109.1c0,0.4-0.3,0.8-0.7,1c-1.4,0.8-5,2.3-6.8-2.5c0-0.1-0.1-0.3-0.1-0.4
					l-7-88.5c-0.1-1.4-0.8-1.5-0.9-0.1l-4.3,80.9c0,0.6-0.4,1.1-1,1.4c-1.9,0.7-6,1.5-6.8-4.4c0,0-7.3-87.5,1.2-99.4L234,357.4z"/>
				<path class="exp46" d="M210.2,351.8c0.2,0.4,0.4,0.7,0.7,1c2.5,2.5,9.1,7,22.3,2.3c0.3-0.1,0.6-0.3,0.8-0.5v2.7
					c-0.2,0.2-0.5,0.4-0.8,0.5c-13.2,4.7-19.8,0.2-22.3-2.3c-0.3-0.3-0.5-0.6-0.7-1V351.8z"/>
				<path class="exp49" d="M226.8,312.6l-6.7-1.5l-10.6-1.4c-2.6-0.3-4.5,3.4-4.6,7.4c-0.4,7.6,4.8,33.6,4.8,33.6
					c0.1,1,0.5,2,1.2,2.8c2.4,2.5,9.1,7.1,22.3,2.4c0.8-0.3,1.4-1,1.6-1.9l4.9-30.7c0.3-1.6-0.4-3.2-1.7-4.1L226.8,312.6z"/>
				<path class="exp10" d="M235.2,294.4c0,0-0.8,9.2-4.6,13.9c-3.8,4.7-11.1-3.1-12.2-5.3c-1.1-2.3-2.9-16.4,8.5-16.4
					C234.3,286.6,235.5,291.1,235.2,294.4z"/>
				<path class="exp45" d="M224.2,300.1c0,0,3.8-2.7,5.2-7.3c0,0,0.8-0.5,5.5,3.4c0,0,5.3,0,2.8-5.6c-2.4-5.5-12.5-12.5-17.4-7
					c0,0-9.2-1.5-7.5,10.4c2.4,15.8,9.8,13.2,11.6,9.6C226.3,300.1,224.2,300.1,224.2,300.1z"/>
				<path class="exp10" d="M226.6,298.3c0,0-1.5-3-2.8-1.2s0.3,5.4,3,5.9L226.6,298.3z"/>
				<path class="exp10" d="M282,352.2c0.1,0,1,1.4,1.7,2.4c0.2,0.3-0.2,0.7-0.5,0.5l-1.9-1.1c0,0,0.1,3.1-4.3,0.3l-0.1-3L282,352.2z"
					/>
				<path class="exp48" d="M277.8,351.3c0,0-27.9-15.8-29.7-6.6c-1.8,9.3,28.8,10,28.8,10S278.2,353.8,277.8,351.3z"/>
				<path class="exp48" d="M237.9,319.1c0,0,4.2,2.1,10,10.4c7.9,11.3,11.5,18,4.2,20.5c-1.9,0.6-14.7-12.8-14.7-12.8
					S232.2,326,237.9,319.1z"/>
				<path class="exp48" d="M228.2,313.4l-1.4-2.3c0,0-2.3-1.4-6.7-1.5l-1.6,1.4C218.5,310.9,218.9,312.5,228.2,313.4z"/>
			</g>
		</g>
		
			<linearGradient id="SVGID_36_" gradientUnits="userSpaceOnUse" x1="728.6192" y1="329.2163" x2="728.6192" y2="187.2681" gradientTransform="matrix(-0.999 -4.390000e-02 4.390000e-02 -0.999 1270.3124 471.8516)">
			<stop  offset="1.860120e-03" style="stop-color:#AC24B9"/>
			<stop  offset="1" style="stop-color:#2E2142"/>
		</linearGradient>
		<path class="exp61" d="M530,143.6c5.5,15,26.1,34.2,43,27c8.4-3.6,12.9-15.3,7.3-22.4c-4-5.1-11.1-6.3-16.3-10.2
			c-4.6-3.5-7.3-8.8-10.8-13.4c-3.5-4.6-8.6-8.8-14.4-8.2c-12,1.3-12,17.9-9.2,26.4C529.8,143,529.9,143.3,530,143.6z"/>
	</g>
</g>
<g id="Designed_by_Freepik">
</g>
</svg>
